<svg width="134" height="135" viewBox="0 0 134 135" fill="none" xmlns="http://www.w3.org/2000/svg">
<path d="M133.667 67.3532C133.667 104.167 103.813 134.02 67 134.02C30.1867 134.02 0.333374 104.167 0.333374 67.3532C0.333374 30.5399 30.1867 0.686523 67 0.686523C103.813 0.686523 133.667 30.5399 133.667 67.3532Z" fill="#7FBB48"/>
<path d="M110.547 40.7931L104.24 34.4731C101.187 31.4198 95.96 31.4198 92.92 34.4731L56.7467 70.4864L41.1067 54.7264C38.0534 51.6731 32.8267 51.6731 29.7867 54.7264L23.4667 61.0464C20.4134 64.0998 20.4134 69.3264 23.4667 72.3664L51.12 100.233C54.1734 103.286 59.3867 103.286 62.44 100.233L68.76 93.9264C69.0667 93.6198 69.32 93.2864 69.56 92.9398L110.573 52.1131C113.627 49.0598 113.627 43.8331 110.573 40.7931H110.547Z" fill="white"/>
</svg>
