<svg width="39" height="43" viewBox="0 0 39 43" fill="none" xmlns="http://www.w3.org/2000/svg">
<path d="M19.2934 22.5087C13.0934 22.5087 8.04004 17.4554 8.04004 11.2554C8.04004 5.05541 13.0934 0.0020752 19.2934 0.0020752C25.4934 0.0020752 30.5467 5.05541 30.5467 11.2554C30.5467 17.4554 25.4934 22.5087 19.2934 22.5087Z" fill="#252849"/>
<path d="M36.7867 42.6688H1.78666C1.09333 42.6688 0.533325 42.1088 0.533325 41.4154C0.533325 37.0688 2.22666 32.9621 5.27999 29.8421C8.35999 26.7088 12.44 24.9888 16.7733 24.9888H21.7733C26.1066 24.9888 30.1867 26.7088 33.2667 29.8421C36.3334 32.9488 38.0133 37.0554 38.0133 41.4154C38.0133 42.1088 37.4533 42.6688 36.76 42.6688H36.7867Z" fill="#252849"/>
</svg>
