<svg width="38" height="43" viewBox="0 0 38 43" fill="none" xmlns="http://www.w3.org/2000/svg">
<path d="M19.1522 22.6776C12.9527 22.6776 7.89978 17.6247 7.89978 11.4252C7.89978 5.22567 12.9527 0.172729 19.1522 0.172729C25.3518 0.172729 30.4047 5.22567 30.4047 11.4252C30.4047 17.6247 25.3518 22.6776 19.1522 22.6776Z" fill="white"/>
<path d="M36.6442 42.8361H1.64692C0.953636 42.8361 0.393677 42.2761 0.393677 41.5829C0.393677 37.2365 2.08688 33.1302 5.13997 30.0104C8.21973 26.8773 12.2994 25.1575 16.6324 25.1575H21.6321C25.965 25.1575 30.0447 26.8773 33.1245 30.0104C36.1909 33.1168 37.8708 37.2232 37.8708 41.5829C37.8708 42.2761 37.3108 42.8361 36.6175 42.8361H36.6442Z" fill="white"/>
</svg>
