<svg width="44" height="35" viewBox="0 0 44 35" fill="none" xmlns="http://www.w3.org/2000/svg">
<path d="M37.9052 6.26489H33.4519L30.9986 2.55825C30.0653 1.1716 28.4519 0.331604 26.7719 0.331604H16.572C14.9054 0.331604 13.2787 1.1716 12.3454 2.55825L9.8921 6.26489H5.43876C2.61212 6.26489 0.332153 8.53154 0.332153 11.3715V29.3714C0.332153 32.198 2.59878 34.478 5.43876 34.478H37.9052C40.7318 34.478 43.0118 32.2114 43.0118 29.3714V11.3715C43.0118 8.54487 40.7452 6.26489 37.9052 6.26489ZM21.6787 30.2914C15.3187 30.2914 10.1721 25.1447 10.1721 18.7848C10.1721 12.4248 15.3187 7.33155 21.6787 7.33155C28.0386 7.33155 33.1852 12.4782 33.1852 18.8381C33.1852 25.1981 28.0386 30.2914 21.6787 30.2914ZM37.2652 13.4515H35.2252C34.3852 13.4115 33.7452 12.7048 33.7852 11.8782C33.8252 11.0915 34.4386 10.4915 35.2252 10.4382H37.0785C37.9185 10.3982 38.6118 11.0382 38.6518 11.8782C38.6918 12.7182 38.0919 13.4115 37.2652 13.4515Z" fill="#74ACDA"/>
<path d="M21.6787 12.4382C18.1587 12.4382 15.2787 15.3182 15.2787 18.8381C15.2787 22.3581 18.1587 25.1981 21.6787 25.1981C25.1986 25.1981 28.0786 22.3181 28.0786 18.7981C28.0786 15.2782 25.1986 12.4382 21.6787 12.4382Z" fill="#74ACDA"/>
</svg>
