<svg width="33" height="33" viewBox="0 0 33 33" fill="none" xmlns="http://www.w3.org/2000/svg">
<g clip-path="url(#clip0_8_8781)">
<path d="M32.0126 16.0063C32.0126 24.8498 24.8498 32.0126 16.0063 32.0126C7.16282 32.0126 0 24.8498 0 16.0063C0 7.16282 7.16282 0 16.0063 0C24.8498 0 32.0126 7.16282 32.0126 16.0063Z" fill="white"/>
<path d="M26.4638 9.63051L24.9432 8.10991C24.2096 7.37629 22.9558 7.37629 22.2221 8.10991L13.5387 16.7533L9.77724 12.9652C9.04361 12.2315 7.78979 12.2315 7.05617 12.9652L5.53557 14.4858C4.80195 15.2194 4.80195 16.4732 5.53557 17.2068L12.1782 23.9028C12.9118 24.6364 14.1656 24.6364 14.8993 23.9028L16.4199 22.3822C16.4865 22.3155 16.5532 22.2221 16.6066 22.1421L26.4505 12.3382C27.1841 11.6046 27.1841 10.3508 26.4505 9.61717L26.4638 9.63051Z" fill="#25509A"/>
</g>
<defs>
<clipPath id="clip0_8_8781">
<rect width="32.0126" height="32.0126" fill="white"/>
</clipPath>
</defs>
</svg>
