<svg width="47" height="43" viewBox="0 0 47 43" fill="none" xmlns="http://www.w3.org/2000/svg">
<path d="M3.60254 39.9963C3.60254 41.5695 4.88244 42.8494 6.45565 42.8494H20.6946V22.9176H3.60254V40.0096V39.9963Z" fill="white"/>
<path d="M43.4661 11.5052H34.4534C35.0934 11.0652 35.6534 10.6252 36.04 10.2386C38.3332 7.9321 38.3332 4.17239 36.04 1.8659C33.8135 -0.387255 29.9205 -0.373923 27.6806 1.8659C26.4407 3.10581 23.1743 8.14541 23.6276 11.5185H23.4277C23.881 8.14541 20.6012 3.10581 19.3746 1.8659C17.1481 -0.373923 13.2551 -0.373923 11.0153 1.8659C8.72212 4.17239 8.72212 7.9321 11.0153 10.2386C11.4019 10.6252 11.9619 11.0652 12.6018 11.5052H3.58919C2.01598 11.5052 0.736084 12.7851 0.736084 14.3583V18.6246C0.736084 19.4112 1.37602 20.0512 2.16263 20.0512H20.6679V14.3583H26.3608V20.0512H44.866C45.6526 20.0512 46.2925 19.4112 46.2925 18.6246V14.3583C46.2925 12.7851 45.0126 11.5052 43.4394 11.5052H43.4661ZM13.0418 8.22541C11.8419 7.0255 11.8419 5.06565 13.0418 3.86575C13.6151 3.27913 14.3883 2.97248 15.2016 2.97248C16.0149 2.97248 16.7748 3.29246 17.3615 3.86575C19.2813 5.79893 21.1878 10.7319 20.5212 11.4118C20.5212 11.4118 20.4012 11.5052 19.9879 11.5052C18.0147 11.5052 14.2684 9.46531 13.0418 8.22541ZM29.7205 3.86575C30.8671 2.70584 32.8802 2.70584 34.0402 3.86575C35.2401 5.06565 35.2401 7.0255 34.0402 8.22541C32.8136 9.46531 29.0539 11.5052 27.0807 11.5052C26.6807 11.5052 26.5607 11.4118 26.5607 11.4118C25.8941 10.7319 27.8006 5.79893 29.7205 3.86575Z" fill="white"/>
<path d="M26.3874 42.8361H40.6263C42.1995 42.8361 43.4794 41.5562 43.4794 39.983V22.891H26.3874V42.8228V42.8361Z" fill="white"/>
</svg>
