<svg width="47" height="43" viewBox="0 0 47 43" fill="none" xmlns="http://www.w3.org/2000/svg">
<path d="M3.34668 39.8154C3.34668 41.3887 4.62668 42.6687 6.20001 42.6687H20.44V22.7354H3.34668V39.8287V39.8154Z" fill="#252849"/>
<path d="M43.2267 11.3354H34.2134C34.8534 10.8954 35.4134 10.4554 35.8 10.0687C38.0934 7.76204 38.0934 4.00205 35.8 1.69538C33.5734 -0.557954 29.68 -0.54462 27.44 1.69538C26.2 2.93538 22.9333 7.97538 23.3867 11.3487H23.1867C23.64 7.97538 20.36 2.93538 19.1334 1.69538C16.9067 -0.54462 13.0134 -0.54462 10.7734 1.69538C8.48002 4.00205 8.48002 7.76204 10.7734 10.0687C11.16 10.4554 11.72 10.8954 12.36 11.3354H3.34668C1.77335 11.3354 0.493347 12.6154 0.493347 14.1887V18.4554C0.493347 19.242 1.13336 19.882 1.92002 19.882H20.4267V14.1887H26.12V19.882H44.6267C45.4134 19.882 46.0533 19.242 46.0533 18.4554V14.1887C46.0533 12.6154 44.7733 11.3354 43.2 11.3354H43.2267ZM12.8 8.05538C11.6 6.85538 11.6 4.89538 12.8 3.69538C13.3734 3.10871 14.1467 2.80205 14.96 2.80205C15.7734 2.80205 16.5333 3.12205 17.12 3.69538C19.04 5.62871 20.9467 10.562 20.28 11.242C20.28 11.242 20.16 11.3354 19.7467 11.3354C17.7734 11.3354 14.0267 9.29538 12.8 8.05538ZM29.48 3.69538C30.6267 2.53538 32.64 2.53538 33.8 3.69538C35 4.89538 35 6.85538 33.8 8.05538C32.5734 9.29538 28.8134 11.3354 26.84 11.3354C26.44 11.3354 26.32 11.242 26.32 11.242C25.6534 10.562 27.56 5.62871 29.48 3.69538Z" fill="#252849"/>
<path d="M26.1334 42.6687H40.3734C41.9467 42.6687 43.2267 41.3887 43.2267 39.8154V22.722H26.1334V42.6554V42.6687Z" fill="#252849"/>
</svg>
