<svg width="63" height="68" viewBox="0 0 63 68" fill="none" xmlns="http://www.w3.org/2000/svg">
<path d="M32.4545 42.9271L28.9212 44.0738C27.3879 44.5671 25.7346 44.8471 24.0412 44.8737C22.2946 44.9004 20.4946 44.6871 18.6813 44.2071C16.828 43.7271 14.9747 42.9671 13.1747 41.9405C11.348 40.8872 9.57469 39.5671 7.93471 37.9538C5.96139 36.0205 4.34807 33.8339 3.10808 31.5272C1.86809 29.2073 1.02809 26.7806 0.588096 24.3673C0.148099 21.9673 0.121433 19.594 0.494764 17.354C0.854761 15.154 1.60142 13.0874 2.70808 11.2741L4.82806 7.80737C4.82806 7.80737 5.66806 7.83406 5.40139 8.40738C4.7214 9.87404 4.2414 11.474 3.97474 13.154C3.60141 15.5273 3.64141 18.0473 4.1214 20.6073C4.6014 23.194 5.49472 25.7806 6.82805 28.2739C8.14804 30.7539 9.86802 33.0872 11.948 35.1805C13.6813 36.9139 15.548 38.3405 17.4813 39.4738C19.3746 40.5804 21.3213 41.4072 23.2546 41.9405C25.1479 42.4605 27.0279 42.7005 28.8412 42.6871C29.6279 42.6871 30.4012 42.6205 31.1612 42.5138C32.1079 42.3805 32.4545 42.9271 32.4545 42.9271Z" fill="url(#paint0_linear_4_7431)"/>
<path d="M8.9747 3.62075C11.1614 2.14077 13.6147 1.31412 16.1613 1.04745C18.6146 0.79412 21.1613 1.06078 23.6413 1.79411C26.0412 2.48744 28.4012 3.62076 30.6012 5.12742C32.7478 6.59407 34.7478 8.42077 36.5212 10.5941C38.0145 12.4207 39.2411 14.3674 40.1878 16.3541C41.1344 18.3274 41.8144 20.3673 42.2411 22.394C42.6678 24.4339 42.8144 26.4872 42.6811 28.4606C42.5478 30.4739 42.1211 32.4206 41.3878 34.2472C41.2678 34.5539 41.1344 34.8605 40.9878 35.1539C40.8411 35.4605 40.6945 35.7538 40.5345 36.0472C40.3745 36.3405 40.2011 36.6339 40.0145 36.9139C39.8278 37.1939 39.6411 37.4872 39.4278 37.7539C39.2278 38.0339 39.0145 38.3005 38.7878 38.5538C38.5745 38.8205 38.3345 39.0605 38.1078 39.3005C37.8678 39.5405 37.6278 39.7805 37.3878 39.9938C37.1345 40.2205 36.8811 40.4338 36.6145 40.6472C35.0012 41.9005 33.1612 42.8072 31.1479 43.3405C29.0679 43.8872 26.8279 44.0338 24.5079 43.7538C22.1213 43.4738 19.6546 42.7405 17.2546 41.5538C14.788 40.3271 12.388 38.6206 10.2014 36.4472C7.60138 33.8473 5.58806 30.8739 4.21474 27.7273C2.82808 24.5806 2.10809 21.3406 2.05476 18.2207C2.00142 15.1407 2.57475 12.2474 3.78808 9.71405C4.9614 7.2474 6.69472 5.16742 8.9747 3.6341V3.62075Z" fill="url(#paint1_radial_4_7431)"/>
<path d="M42.4411 39.1005C41.9878 39.5805 41.4411 40.1138 40.8544 40.6738C40.2545 41.2338 39.6278 41.8338 38.9878 42.3938C38.3478 42.9671 37.7211 43.5138 37.1211 44.0205C36.5345 44.5138 35.9878 44.9538 35.5345 45.2871C35.0812 45.6204 34.7612 45.8471 34.5612 45.9405C34.4678 45.9805 34.1745 45.7937 34.1345 45.7937C34.0945 45.7937 34.0812 45.7672 34.0945 45.7005C34.1345 45.5938 34.2812 45.3805 34.5345 45.0871C34.7878 44.7938 35.1345 44.4204 35.5878 43.9538C36.0412 43.5004 36.5345 43.0071 37.0678 42.5005C37.6011 41.9938 38.1611 41.4871 38.7211 40.9805C39.2811 40.4738 39.8411 39.9805 40.3745 39.5405C40.9078 39.0871 41.4278 38.6605 41.8811 38.3138C42.3478 37.9538 42.7078 37.7005 42.9611 37.5405C43.2278 37.3805 43.3744 37.3139 43.4144 37.3539C43.4144 37.3539 43.4278 37.3805 43.4144 37.4072C43.4144 37.4738 43.5478 37.8339 43.4144 38.0205C43.2144 38.2739 42.8944 38.6339 42.4411 39.1139V39.1005Z" fill="url(#paint2_linear_4_7431)"/>
<path d="M62.4943 59.7669C62.4409 59.6069 62.3609 59.4602 62.2543 59.3402L43.4144 37.3538C43.4144 37.3538 43.4144 37.4204 43.3878 37.5004C43.3478 37.5804 43.2811 37.6737 43.1878 37.7937C43.0944 37.927 42.9611 38.0737 42.8011 38.2604C42.6411 38.4471 42.4411 38.647 42.2278 38.887C41.7744 39.367 41.2278 39.9003 40.6411 40.4603C40.0545 41.0203 39.4145 41.6204 38.7745 42.1804C38.1345 42.7537 37.5078 43.3003 36.9078 43.807C36.3212 44.3003 35.7745 44.7403 35.3212 45.0737C35.1345 45.2203 34.9745 45.3404 34.8278 45.4337C34.6812 45.527 34.5612 45.607 34.4678 45.6737C34.3745 45.727 34.2945 45.767 34.2278 45.7936C34.1745 45.807 34.1345 45.807 34.1212 45.7936L53.9477 66.8868C54.201 67.1401 54.5743 67.2469 54.7343 67.2735C54.8943 67.3002 55.081 67.3135 55.281 67.3001C55.481 67.3001 55.6943 67.2601 55.9343 67.2068C56.5077 67.0735 57.0943 66.8335 57.7076 66.4868C58.321 66.1402 58.9476 65.7135 59.521 65.2068C60.1076 64.7135 60.641 64.1535 61.1076 63.5802C61.561 63.0069 61.9476 62.4069 62.2143 61.8335C62.3476 61.5402 62.4409 61.2736 62.5076 61.0202C62.5743 60.7669 62.6009 60.5402 62.6009 60.3269C62.6009 60.1136 62.5743 59.9269 62.5209 59.7536L62.4943 59.7669Z" fill="url(#paint3_linear_4_7431)"/>
<path d="M53.0277 65.3403C53.241 65.3403 53.481 65.3002 53.7344 65.2336C54.3477 65.0869 54.9877 64.8336 55.641 64.4602C56.3077 64.0869 56.9743 63.6203 57.601 63.0869C58.2276 62.5536 58.8143 61.9536 59.3076 61.3403C59.801 60.727 60.2143 60.0737 60.5076 59.447C60.6543 59.1403 60.7476 58.847 60.8276 58.5803C60.8943 58.3136 60.9343 58.0603 60.9343 57.8336C60.9343 57.8203 60.9343 57.807 60.9343 57.7803L59.801 56.447C59.801 56.447 59.801 56.487 59.801 56.5137C59.801 56.7403 59.761 56.9937 59.6943 57.2603C59.6276 57.527 59.521 57.8203 59.3743 58.1269C59.081 58.7536 58.681 59.3937 58.1743 60.0203C57.681 60.647 57.0943 61.2336 56.4677 61.767C55.841 62.3003 55.1743 62.7669 54.5077 63.1402C53.841 63.5136 53.2144 63.7669 52.601 63.9136C52.3477 63.9669 52.1077 64.007 51.8944 64.0203C51.681 64.0203 51.481 64.0203 51.3077 63.9936C51.2677 63.9936 51.2277 63.9802 51.1744 63.9669L52.4277 65.3136C52.601 65.3402 52.801 65.3536 53.0144 65.3403H53.0277Z" fill="url(#paint4_linear_4_7431)"/>
<path d="M38.4278 41.9405C39.0678 41.3671 39.7078 40.7804 40.2945 40.2204C40.8811 39.6604 41.4278 39.1138 41.8811 38.6471C41.9078 38.6205 41.9344 38.5938 41.9611 38.5671L40.0145 36.2871C40.0145 36.2871 40.0145 36.3405 40.0011 36.3805C39.9745 36.4338 39.9211 36.5005 39.8545 36.5938C39.7878 36.6872 39.6945 36.7938 39.5878 36.9138C39.4811 37.0338 39.3478 37.1805 39.1878 37.3405C38.8678 37.6738 38.4945 38.0472 38.0811 38.4338C37.6678 38.8205 37.2278 39.2338 36.7878 39.6338C36.3478 40.0338 35.9078 40.4071 35.4945 40.7538C35.0945 41.1005 34.7212 41.3937 34.4012 41.6337C34.2678 41.7271 34.1612 41.8204 34.0545 41.8871C33.9612 41.9537 33.8678 42.0071 33.8012 42.0471C33.7345 42.0871 33.6812 42.1137 33.6412 42.1271C33.6012 42.1271 33.5745 42.1271 33.5612 42.1271L35.6412 44.3404C35.9345 44.1138 36.2278 43.8604 36.5478 43.5938C37.1345 43.1004 37.7745 42.5404 38.4145 41.9671L38.4278 41.9405Z" fill="url(#paint5_linear_4_7431)"/>
<path d="M9.28136 3.30069C11.468 1.8207 13.9213 0.994047 16.468 0.727383C18.9213 0.474051 21.4679 0.740713 23.9479 1.47404C26.3479 2.16737 28.7079 3.30069 30.9079 4.80735C33.0545 6.274 35.0545 8.1007 36.8278 10.274C38.3211 12.1007 39.5478 14.0473 40.4945 16.034C41.4411 18.0073 42.1211 20.0472 42.5478 22.0739C42.9744 24.1139 43.1211 26.1672 42.9878 28.1405C42.8544 30.1538 42.4278 32.1005 41.6944 33.9272C41.5744 34.2338 41.4411 34.5405 41.2944 34.8338C41.1478 35.1405 41.0011 35.4338 40.8411 35.7271C40.6811 36.0204 40.5078 36.3138 40.3211 36.5938C40.1345 36.8738 39.9478 37.1671 39.7345 37.4338C39.5345 37.7138 39.3211 37.9804 39.0945 38.2338C38.8678 38.5004 38.6411 38.7404 38.4145 38.9804C38.1745 39.2204 37.9345 39.4604 37.6945 39.6738C37.4411 39.9004 37.1878 40.1138 36.9212 40.3271C35.3078 41.5804 33.4678 42.4871 31.4545 43.0204C29.3745 43.5671 27.1346 43.7137 24.8146 43.4338C22.4279 43.1538 19.9613 42.4204 17.5613 41.2337C15.0947 40.0071 12.6947 38.3004 10.508 36.1271C7.90804 33.5271 5.89472 30.5538 4.5214 27.4072C3.13475 24.2605 2.41475 21.0206 2.36142 17.9006C2.30809 14.8206 2.88142 11.9273 4.09474 9.39398C5.26806 6.92733 7.00138 4.84735 9.28136 3.31403V3.30069Z" fill="url(#paint6_radial_4_7431)"/>
<path d="M10.1347 3.99384C12.2147 2.58052 14.5613 1.79382 17.0013 1.54049C19.348 1.30049 21.7746 1.55386 24.1479 2.24719C26.4412 2.91385 28.6946 3.99385 30.8012 5.42051C32.8412 6.8205 34.7612 8.56711 36.4545 10.6338C37.8811 12.3804 39.0545 14.2337 39.9478 16.127C40.8545 18.0204 41.5078 19.967 41.9078 21.9004C42.3078 23.847 42.4544 25.807 42.3344 27.687C42.2144 29.607 41.8011 31.4736 41.0945 33.2069C40.9745 33.5002 40.8411 33.7936 40.7078 34.0736C40.5745 34.3669 40.4278 34.6469 40.2678 34.9269C40.1078 35.2069 39.9478 35.4869 39.7745 35.7536C39.6011 36.0203 39.4145 36.3002 39.2145 36.5536C39.0145 36.8202 38.8145 37.0736 38.6145 37.3269C38.4011 37.5802 38.1878 37.8202 37.9611 38.0469C37.7345 38.2735 37.5078 38.5002 37.2678 38.7135C37.0278 38.9269 36.7878 39.1402 36.5345 39.3269C35.0012 40.5269 33.2412 41.3935 31.3212 41.8869C29.3345 42.4068 27.2012 42.5535 24.9879 42.2868C22.7079 42.0202 20.3613 41.3136 18.068 40.1802C15.708 39.0069 13.4147 37.3802 11.3347 35.3002C8.85471 32.8203 6.93472 29.9803 5.61473 26.9803C4.29474 23.9803 3.60141 20.887 3.54808 17.9004C3.49475 14.9671 4.05475 12.1938 5.2014 9.7805C6.3214 7.43385 7.98805 5.44715 10.148 3.9805L10.1347 3.99384Z" fill="url(#paint7_radial_4_7431)"/>
<path d="M30.2279 11.0874C27.4012 12.2607 16.2013 18.034 16.2546 35.1939C17.5213 36.1539 18.8413 36.9405 20.1746 37.5538C22.3879 38.5672 24.6412 39.0872 26.8012 39.1538C28.3212 39.1938 29.7879 39.0072 31.1479 38.5939C32.4812 37.8605 36.0678 35.3939 37.2545 29.7673C38.7211 22.8207 35.4545 16.1141 31.6679 12.3674C31.2279 11.9274 30.7345 11.5007 30.2145 11.0874H30.2279Z" fill="url(#paint8_radial_4_7431)"/>
<path d="M30.6412 11.4341C26.6812 8.10084 20.1346 5.5142 13.2813 7.86085C11.7747 8.43418 10.188 9.55416 9.16137 10.7675C8.94804 11.1408 8.74804 11.5141 8.57471 11.9141C7.68138 13.9408 7.25472 16.2341 7.33472 18.6607C7.41472 21.114 7.98805 23.6474 9.06804 26.114C10.148 28.5674 11.708 30.9139 13.708 32.9673C14.6547 33.9406 15.668 34.7939 16.6946 35.5406C16.3213 24.834 21.8413 15.1941 30.6145 11.4341H30.6412Z" fill="url(#paint9_radial_4_7431)"/>
<path d="M39.6411 24.1539C39.4278 22.1939 38.8945 20.1939 38.0545 18.2473C37.2145 16.3006 36.0545 14.4073 34.5878 12.6339C34.4145 12.4339 34.2412 12.234 34.0678 12.034C34.0145 11.9807 33.9612 11.9273 33.9078 11.8607C33.7878 11.7273 33.6678 11.5939 33.5478 11.4739C33.5478 11.4739 33.5345 11.4607 33.5212 11.4473C33.4678 11.394 33.4145 11.3273 33.3612 11.274C33.2678 11.1673 33.1612 11.074 33.0679 10.9806C33.0145 10.9273 32.9612 10.874 32.9212 10.834C32.8812 10.794 32.8545 10.7673 32.8145 10.7273C32.6279 10.554 32.4412 10.3673 32.2545 10.2073C32.2145 10.1806 32.1879 10.1407 32.1479 10.114C30.6145 10.7273 29.2145 11.4606 28.5479 11.8206C28.5879 11.8473 28.6279 11.8873 28.6679 11.914C28.7212 11.954 28.7879 12.0073 28.8412 12.0473C28.9879 12.1673 29.1345 12.2873 29.2679 12.4073C29.3079 12.4473 29.3479 12.474 29.3879 12.514C29.5745 12.674 29.7479 12.834 29.9345 13.0073C29.9612 13.034 29.9879 13.0606 30.0279 13.0873C30.1745 13.2206 30.3212 13.3673 30.4679 13.514C30.5212 13.5673 30.5745 13.6206 30.6279 13.674C30.7479 13.8073 30.8812 13.9406 31.0012 14.0606C31.0545 14.1139 31.0945 14.1673 31.1479 14.2206C31.3079 14.4073 31.4812 14.594 31.6412 14.7806C33.0412 16.434 34.1345 18.2206 34.9345 20.0606C35.7212 21.8872 36.2145 23.7805 36.4145 25.6472C36.6011 27.5272 36.4812 29.3938 36.0412 31.1271C35.5878 32.9004 34.7878 34.5805 33.6145 36.0338C33.4545 36.2338 33.2945 36.4205 33.1212 36.6071C33.1212 36.6205 33.0945 36.6338 33.0812 36.6471C32.9345 36.8071 32.7745 36.9671 32.6145 37.1271C32.5745 37.1671 32.5212 37.2204 32.4812 37.2604C32.3612 37.3804 32.2279 37.4871 32.1079 37.6071C32.0545 37.6605 31.9879 37.7004 31.9345 37.7538C31.8012 37.8604 31.6679 37.9671 31.5345 38.0738C31.4812 38.1138 31.4412 38.1404 31.3879 38.1804C31.2012 38.3138 31.0145 38.4471 30.8279 38.5671C30.7879 38.5937 30.7479 38.6071 30.7079 38.6337C30.6145 38.6871 30.5212 38.7404 30.4279 38.8071C31.1212 38.6471 31.8012 38.4204 32.4412 38.1538C32.5745 38.1004 32.7078 38.0471 32.8412 37.9804C33.0145 37.9004 33.1745 37.8204 33.3478 37.7404C33.3745 37.7271 33.4145 37.7005 33.4412 37.6871C33.5612 37.6205 33.6812 37.5538 33.7878 37.4871C33.9078 37.4204 34.0278 37.3404 34.1478 37.2604C34.2545 37.1938 34.3478 37.1271 34.4545 37.0604C34.5612 36.9938 34.6545 36.9271 34.7612 36.8471C34.8545 36.7805 34.9478 36.7138 35.0412 36.6471C35.0412 36.6471 35.0412 36.6471 35.0545 36.6337C35.1078 36.5937 35.1612 36.5538 35.2145 36.5004C35.3345 36.4071 35.4412 36.3137 35.5612 36.2204C35.5878 36.1938 35.6145 36.1804 35.6412 36.1538C35.7478 36.0604 35.8545 35.9671 35.9478 35.8737C36.0145 35.8071 36.0945 35.7405 36.1612 35.6738C36.1612 35.6738 36.1878 35.6471 36.2145 35.6204C36.3878 35.4471 36.5478 35.2738 36.7078 35.1005C36.8678 34.9138 37.0278 34.7271 37.1745 34.5404C37.6278 33.9671 38.0145 33.3671 38.3478 32.7405C38.4145 32.6071 38.4811 32.4738 38.5478 32.3405C38.8811 31.5805 39.1478 30.7804 39.3478 29.9538C39.6278 28.8071 39.7611 27.6072 39.7745 26.3938C39.7745 25.6605 39.7478 24.9272 39.6678 24.1806L39.6411 24.1539Z" fill="url(#paint10_radial_4_7431)"/>
<path d="M32.2412 10.2072C32.2412 10.2072 32.1479 10.1272 32.1079 10.0872C31.9612 9.95387 31.8145 9.8339 31.6679 9.70057C31.6012 9.64723 31.5479 9.59383 31.4812 9.54049C31.4412 9.51383 31.4145 9.48716 31.3745 9.4605C31.2679 9.3805 31.1612 9.28716 31.0545 9.20716C31.0012 9.16716 30.9345 9.11386 30.8812 9.07386C30.6812 8.9272 30.4812 8.78051 30.2812 8.63384C30.2812 8.63384 30.2679 8.63383 30.2545 8.6205C30.1479 8.5405 30.0412 8.47387 29.9345 8.4072C29.8279 8.3272 29.7212 8.26056 29.6012 8.18056C29.5612 8.15389 29.5212 8.12723 29.4812 8.10056C29.4412 8.0739 29.3879 8.04723 29.3479 8.02057C29.2412 7.9539 29.1345 7.8872 29.0279 7.82053C28.9612 7.78054 28.8945 7.74058 28.8279 7.70058C28.6545 7.59392 28.4812 7.50053 28.3079 7.39386C28.2679 7.3672 28.2279 7.34055 28.1879 7.32721C28.0812 7.26055 27.9612 7.20721 27.8412 7.15387C27.7346 7.10054 27.6412 7.04721 27.5346 6.99388C27.4812 6.96721 27.4412 6.94056 27.3879 6.92723C27.2146 6.84723 27.0412 6.76724 26.8679 6.68724C26.8012 6.66058 26.7346 6.62057 26.6679 6.5939C26.5346 6.54057 26.4012 6.48723 26.2812 6.42056C26.1346 6.36723 26.0012 6.30056 25.8546 6.24722C25.7346 6.20722 25.6279 6.15392 25.5079 6.11392C25.3612 6.06059 25.2146 6.00718 25.0679 5.95385C24.9612 5.91385 24.8412 5.87391 24.7346 5.84724C24.5879 5.79391 24.4279 5.75386 24.2679 5.71386C24.1213 5.67386 23.9879 5.63391 23.8413 5.59391C23.8146 5.59391 23.7879 5.5939 23.7746 5.58056C23.6813 5.5539 23.5746 5.52725 23.4813 5.51391C23.3746 5.48725 23.2679 5.46058 23.1613 5.43392C22.9879 5.39392 22.8013 5.36723 22.6279 5.32723C22.5746 5.32723 22.5079 5.30052 22.4546 5.28719C22.4279 5.28719 22.3879 5.28726 22.3613 5.27392C22.1079 5.23392 21.8546 5.1939 21.6013 5.16724C21.6013 5.16724 21.5746 5.16724 21.5613 5.16724C21.5346 5.16724 21.4946 5.16724 21.4679 5.16724C21.2279 5.14057 20.9879 5.11392 20.7613 5.10059C20.6679 5.10059 20.5613 5.10057 20.4679 5.08724C20.2946 5.08724 20.1346 5.07388 19.9613 5.06055C19.748 5.06055 19.548 5.06055 19.3346 5.06055C19.2946 5.06055 19.268 5.06055 19.228 5.06055C19.0413 5.06055 18.8546 5.07391 18.668 5.08724C18.628 5.08724 18.6013 5.08724 18.5613 5.08724C18.5346 5.08724 18.508 5.08724 18.4813 5.08724C18.2546 5.10057 18.0146 5.12724 17.788 5.16724C17.548 5.1939 17.2946 5.23386 17.0546 5.28719H17.028C16.8013 5.32719 16.5613 5.3806 16.3346 5.44726C16.308 5.44726 16.2813 5.44719 16.2546 5.46053C16.028 5.51386 15.8147 5.58055 15.6013 5.64721C15.5613 5.64721 15.5347 5.6739 15.4947 5.6739C15.4547 5.6739 15.428 5.70053 15.388 5.71386C15.2147 5.76719 15.0413 5.83388 14.8547 5.90055C14.8147 5.90055 14.788 5.92725 14.7613 5.94059C14.548 6.02058 14.3347 6.11385 14.1347 6.20719C14.108 6.20719 14.0813 6.23389 14.0547 6.24722C13.8413 6.35389 13.628 6.46054 13.4147 6.56721C13.4147 6.56721 13.4147 6.56721 13.4013 6.56721C13.1747 6.68721 12.9613 6.82051 12.748 6.95384C12.5213 7.08717 12.308 7.23386 12.0947 7.39386C12.0013 7.46053 11.9213 7.52723 11.8413 7.59389C11.708 7.71389 11.5613 7.83385 11.428 7.96718C11.388 7.99385 11.3614 8.03386 11.3347 8.06052C11.1747 8.22052 11.0014 8.39385 10.8547 8.55385C10.828 8.58051 10.8147 8.60718 10.788 8.63384C10.668 8.78051 10.548 8.91385 10.428 9.06052C10.3614 9.15385 10.2814 9.23386 10.2147 9.3272C9.7347 9.95386 9.30803 10.6205 8.94804 11.3405C9.12137 11.1805 9.28137 11.0205 9.46803 10.8606C9.4947 10.8339 9.5347 10.8072 9.56136 10.7806C9.76136 10.6072 9.96136 10.4471 10.1747 10.2871C10.3747 10.1405 10.588 9.99389 10.788 9.86056C10.988 9.72723 11.2014 9.59384 11.4147 9.47384C11.4147 9.47384 11.4147 9.47384 11.428 9.47384C11.628 9.36718 11.828 9.26052 12.028 9.15386C12.0547 9.15386 12.0813 9.12723 12.108 9.1139C12.308 9.02057 12.4947 8.92722 12.6947 8.84722C12.7347 8.83389 12.7613 8.82051 12.8013 8.80718C13.0013 8.72718 13.2013 8.6472 13.4013 8.58054C13.4413 8.58054 13.4813 8.55383 13.508 8.5405C13.708 8.47383 13.908 8.40723 14.1213 8.3539C14.148 8.3539 14.188 8.34054 14.2147 8.3272C14.348 8.2872 14.4947 8.26052 14.628 8.22052C14.7747 8.18052 14.908 8.15384 15.0547 8.12717C15.1613 8.10051 15.2813 8.08719 15.388 8.06052C15.5347 8.03386 15.6813 8.00721 15.828 7.99387C15.9346 7.98054 16.0413 7.96717 16.148 7.95383C16.2946 7.9405 16.4413 7.92721 16.6013 7.91388C16.708 7.91388 16.8146 7.90052 16.9213 7.88718C17.0813 7.88718 17.2413 7.87384 17.388 7.87384C17.4813 7.87384 17.588 7.87384 17.6813 7.87384C17.8413 7.87384 18.0146 7.87384 18.1746 7.87384C18.268 7.87384 18.348 7.87384 18.4413 7.87384C18.668 7.87384 18.8946 7.90056 19.1346 7.92722C19.1613 7.92722 19.188 7.92722 19.2146 7.92722C19.468 7.95389 19.7213 7.98057 19.9746 8.02057C20.0679 8.02057 20.148 8.04719 20.2413 8.06052C20.4146 8.08719 20.5746 8.11387 20.7479 8.15387C20.8546 8.18053 20.9613 8.19385 21.0679 8.22052C21.2146 8.24718 21.3613 8.28719 21.5079 8.31386C21.6146 8.34052 21.7213 8.36719 21.8146 8.39385C21.9613 8.43385 22.1079 8.47389 22.2546 8.51389C22.3613 8.54056 22.4679 8.5805 22.5746 8.6205C22.7079 8.6605 22.8546 8.71388 22.9879 8.75388C23.0946 8.79388 23.2146 8.83383 23.3213 8.87383C23.4546 8.92716 23.5879 8.98057 23.7346 9.0339C23.8546 9.08724 23.9879 9.12722 24.1079 9.18055C24.1746 9.20722 24.2413 9.23388 24.2946 9.26055C24.4546 9.32721 24.6146 9.40719 24.7879 9.48719C24.8412 9.51385 24.8812 9.52717 24.9346 9.55384C25.1479 9.64717 25.3479 9.75389 25.5612 9.86056C25.6012 9.87389 25.6412 9.90054 25.6679 9.92721C25.8412 10.0205 26.0012 10.1138 26.1746 10.2072C26.2412 10.2472 26.2946 10.2738 26.3612 10.3138C26.5079 10.3938 26.6546 10.4872 26.8012 10.5805C26.8546 10.6205 26.9212 10.6472 26.9746 10.6872C27.1612 10.8072 27.3479 10.9272 27.5479 11.0605C27.7479 11.1938 27.9346 11.3272 28.1212 11.4738C28.1746 11.5138 28.2279 11.5539 28.2812 11.5939C28.4146 11.7005 28.5612 11.8072 28.6945 11.9138C28.7479 11.9538 28.8146 12.0071 28.8679 12.0471C28.9345 12.1005 29.0012 12.1538 29.0679 12.2071C30.2412 11.5805 31.4812 11.0605 32.7878 10.6605C32.6278 10.5005 32.4545 10.3538 32.2945 10.2072H32.2412Z" fill="url(#paint11_radial_4_7431)"/>
<path d="M39.8811 23.6471C39.6678 21.7005 39.1345 19.7005 38.3078 17.7672C37.4811 15.8339 36.3345 13.9406 34.8678 12.1806C34.6945 11.9806 34.5345 11.7806 34.3612 11.5806C34.3078 11.5273 34.2545 11.4739 34.2145 11.4073C34.0945 11.2739 33.9745 11.1406 33.8545 11.0206C33.8545 11.0206 33.8412 11.0073 33.8278 10.9939C33.7745 10.9406 33.7212 10.8739 33.6678 10.8206C33.5745 10.7273 33.4678 10.6206 33.3745 10.5273C33.3212 10.474 33.2678 10.4206 33.2278 10.3806C33.1878 10.3406 33.1612 10.314 33.1212 10.274C32.9345 10.1006 32.7478 9.92728 32.5612 9.75395C32.5212 9.71395 32.4679 9.67391 32.4279 9.63391C32.2812 9.50058 32.1345 9.38061 31.9879 9.24728C31.9212 9.19395 31.8679 9.14062 31.8012 9.08729C31.7612 9.06062 31.7345 9.03396 31.6945 9.00729C31.5879 8.92729 31.4812 8.83395 31.3745 8.75396C31.3212 8.71396 31.2545 8.66057 31.2012 8.62057C31.0012 8.47391 30.8145 8.3273 30.6145 8.18064C30.6145 8.18064 30.6012 8.18062 30.5879 8.16729C30.4812 8.08729 30.3745 8.02058 30.2679 7.95391C30.1612 7.87391 30.0545 7.80727 29.9479 7.72727C29.9079 7.7006 29.8679 7.67394 29.8279 7.64727C29.7879 7.62061 29.7345 7.59394 29.6945 7.56728C29.5879 7.50061 29.4812 7.43399 29.3745 7.36733C29.3079 7.32733 29.2412 7.28729 29.1745 7.24729C29.0012 7.14063 28.8279 7.04725 28.6546 6.95392C28.6145 6.92725 28.5746 6.9006 28.5346 6.88727C28.4279 6.8206 28.3079 6.76727 28.2012 6.71393C28.0946 6.6606 28.0012 6.60727 27.8946 6.55394C27.8412 6.52727 27.8012 6.50062 27.7479 6.48729C27.5746 6.40729 27.4146 6.3273 27.2412 6.2473C27.1746 6.22064 27.1079 6.18063 27.0412 6.15396C26.9079 6.10063 26.7879 6.04729 26.6546 5.98062C26.5079 5.92729 26.3746 5.86062 26.2279 5.80728C26.1079 5.76728 26.0012 5.71398 25.8812 5.67398C25.7346 5.62065 25.5879 5.56732 25.4412 5.51399C25.3346 5.47399 25.2146 5.43397 25.1079 5.4073C24.9612 5.35397 24.8012 5.314 24.6546 5.274C24.5079 5.234 24.3746 5.19397 24.2279 5.15397C24.2012 5.15397 24.1879 5.15395 24.1612 5.14062C24.0679 5.11395 23.9613 5.0873 23.8679 5.07397C23.7613 5.0473 23.6546 5.02064 23.5613 4.99397C23.3879 4.95398 23.2146 4.92729 23.0279 4.88729C22.9746 4.88729 22.9079 4.86066 22.8546 4.84733C22.8279 4.84733 22.7879 4.84732 22.7613 4.83398C22.5079 4.79398 22.2546 4.75396 22.0146 4.72729C22.0146 4.72729 21.9879 4.72729 21.9746 4.72729C21.9479 4.72729 21.9079 4.72729 21.8813 4.72729C21.6413 4.70063 21.4146 4.67398 21.1746 4.66064C21.0813 4.66064 20.9879 4.66063 20.8813 4.6473C20.7079 4.6473 20.5479 4.63394 20.3746 4.62061C20.1746 4.62061 19.9613 4.62061 19.7613 4.62061C19.7213 4.62061 19.6946 4.62061 19.6546 4.62061C19.468 4.62061 19.2813 4.63396 19.0946 4.6473C19.0546 4.6473 19.028 4.6473 18.988 4.6473C18.9613 4.6473 18.9346 4.6473 18.908 4.6473C18.6813 4.66063 18.4546 4.68729 18.2146 4.72729C17.9746 4.75396 17.7346 4.794 17.4946 4.84733H17.468C17.2413 4.88733 17.0146 4.94066 16.7746 5.00732C16.748 5.00732 16.7213 5.00733 16.6946 5.02067C16.4813 5.074 16.2546 5.1406 16.0413 5.20727C16.0013 5.20727 15.9746 5.23396 15.9346 5.23396C15.8946 5.23396 15.868 5.26067 15.828 5.274C15.6546 5.32733 15.4813 5.39394 15.308 5.46061C15.2813 5.46061 15.2413 5.48731 15.2147 5.50064C15.0013 5.58064 14.8013 5.67399 14.588 5.76733C14.5613 5.76733 14.5347 5.79395 14.508 5.80728C14.2947 5.91395 14.0813 6.0206 13.868 6.12727C13.868 6.12727 13.868 6.12727 13.8547 6.12727C13.628 6.24727 13.4147 6.38065 13.2013 6.51398C12.988 6.64731 12.7747 6.79392 12.5613 6.95392C12.3613 7.10059 12.1747 7.24729 11.9747 7.40729C11.948 7.43395 11.9213 7.4606 11.8947 7.47394C11.7213 7.6206 11.548 7.78065 11.3747 7.94065C11.3347 7.96731 11.308 8.00732 11.2813 8.03399C11.1214 8.19399 10.948 8.36731 10.8014 8.52731C10.7747 8.55398 10.7614 8.58064 10.7347 8.60731C10.6147 8.75397 10.4947 8.88732 10.3747 9.03398C10.308 9.12732 10.228 9.20725 10.1614 9.30058C10.1214 9.35391 10.0814 9.40724 10.0414 9.46057C10.628 8.78058 11.2813 8.16726 12.0147 7.63393C13.708 6.39394 15.6413 5.66061 17.668 5.38061C19.628 5.11394 21.6813 5.27395 23.6946 5.80728C25.6546 6.32728 27.6012 7.20729 29.4145 8.40728C31.1879 9.5806 32.8678 11.0739 34.3345 12.8473C35.7878 14.6073 36.9345 16.5006 37.7745 18.4339C38.6011 20.3672 39.1345 22.3538 39.3478 24.3138C39.5611 26.2871 39.4678 28.2338 39.0278 30.0604C38.6011 31.8204 37.8545 33.4871 36.7745 34.9404C36.9078 34.7938 37.0278 34.6337 37.1612 34.4871C37.6145 33.9137 38.0011 33.3138 38.3345 32.6871C38.8945 31.6471 39.3078 30.5271 39.5878 29.3672C39.8545 28.2205 40.0011 27.0338 40.0145 25.8205C40.0145 25.0871 39.9878 24.3538 39.9078 23.6205L39.8811 23.6471Z" fill="url(#paint12_linear_4_7431)"/>
<path d="M28.4679 11.594C28.9612 10.5007 28.0412 8.98061 26.4279 8.20728C24.8012 7.43396 23.0813 7.70064 22.5879 8.80729C22.0946 9.90062 23.0146 11.4207 24.6279 12.194C26.2546 12.9673 27.9745 12.7006 28.4679 11.594Z" fill="white"/>
<path d="M20.8413 8.28728C20.8679 7.52728 19.9746 6.84734 18.8546 6.75401C17.7346 6.66067 16.8146 7.19395 16.788 7.95395C16.7613 8.71394 17.6546 9.39397 18.7746 9.4873C19.8946 9.58063 20.8146 9.04727 20.8413 8.28728Z" fill="white"/>
<path d="M26.4146 8.20734C24.8679 7.47401 23.2279 7.68738 22.6546 8.6607C22.7479 8.68737 22.8413 8.71404 22.9346 8.75404C23.0413 8.79404 23.1613 8.834 23.2679 8.874C23.4013 8.92733 23.5346 8.98074 23.6812 9.03407C23.8012 9.0874 23.9346 9.12738 24.0546 9.18072C24.1212 9.20738 24.1879 9.23405 24.2412 9.26071C24.4012 9.32738 24.5612 9.40736 24.7346 9.48735C24.7879 9.51402 24.8279 9.52734 24.8812 9.554C25.0946 9.64734 25.2946 9.75406 25.5079 9.86072C25.5479 9.87406 25.5879 9.90071 25.6146 9.92737C25.7879 10.0207 25.9479 10.114 26.1212 10.2073C26.1879 10.2473 26.2412 10.274 26.3079 10.314C26.4546 10.394 26.6012 10.4874 26.7479 10.5807C26.8012 10.6207 26.8679 10.6474 26.9212 10.6874C27.1079 10.8074 27.2946 10.9273 27.4946 11.0607C27.6946 11.194 27.8812 11.3273 28.0679 11.474C28.1212 11.514 28.1745 11.554 28.2279 11.594C28.2812 11.634 28.3345 11.674 28.3879 11.714C28.4145 11.674 28.4412 11.634 28.4545 11.594C28.9479 10.5007 28.0279 8.98066 26.4146 8.20734Z" fill="url(#paint13_radial_4_7431)"/>
<path d="M18.868 6.75401C17.788 6.66067 16.8946 7.16729 16.8146 7.87395C16.8146 7.87395 16.8413 7.87395 16.8546 7.87395C17.0146 7.87395 17.1746 7.86069 17.3213 7.86069C17.4146 7.86069 17.5213 7.86069 17.6146 7.86069C17.7746 7.86069 17.948 7.86069 18.108 7.86069C18.2013 7.86069 18.2813 7.86069 18.3746 7.86069C18.6013 7.86069 18.828 7.88732 19.068 7.91399C19.0946 7.91399 19.1213 7.91399 19.148 7.91399C19.4013 7.94066 19.6546 7.96733 19.908 8.00733C20.0013 8.00733 20.0813 8.03396 20.1746 8.04729C20.348 8.07396 20.5079 8.10063 20.6813 8.14063C20.7346 8.14063 20.7879 8.16734 20.8413 8.18067C20.7746 7.47401 19.9213 6.84734 18.868 6.75401Z" fill="url(#paint14_radial_4_7431)"/>
<defs>
<linearGradient id="paint0_linear_4_7431" x1="21.2279" y1="39.0338" x2="1.60143" y2="17.4606" gradientUnits="userSpaceOnUse">
<stop stop-color="#010101"/>
<stop offset="0.14" stop-color="#1F2A33"/>
<stop offset="0.32" stop-color="#425B6D"/>
<stop offset="0.4" stop-color="#637988"/>
<stop offset="0.52" stop-color="#8EA0AA"/>
<stop offset="0.58" stop-color="#9FAFB8"/>
<stop offset="0.6" stop-color="#ABB8C0"/>
<stop offset="0.68" stop-color="#C8D0D3"/>
<stop offset="0.72" stop-color="#D3D9DB"/>
<stop offset="0.74" stop-color="#CAD1D4"/>
<stop offset="0.77" stop-color="#B2BEC3"/>
<stop offset="0.8" stop-color="#8C9EA7"/>
<stop offset="0.81" stop-color="#899BA5"/>
<stop offset="0.9" stop-color="#425B6D"/>
<stop offset="1" stop-color="#010101"/>
</linearGradient>
<radialGradient id="paint1_radial_4_7431" cx="0" cy="0" r="1" gradientUnits="userSpaceOnUse" gradientTransform="translate(5.82806 28.8473) scale(17.4399 17.4399)">
<stop stop-color="white"/>
<stop offset="0.12" stop-color="#D9DFE3"/>
<stop offset="0.33" stop-color="#A0AFB9"/>
<stop offset="0.4" stop-color="#92A2AD"/>
<stop offset="0.54" stop-color="#6D8290"/>
<stop offset="0.68" stop-color="#425B6D"/>
<stop offset="0.8" stop-color="#283548"/>
<stop offset="0.9" stop-color="#121528"/>
<stop offset="0.99" stop-color="#020204"/>
<stop offset="1" stop-color="#010101"/>
</radialGradient>
<linearGradient id="paint2_linear_4_7431" x1="44.7344" y1="47.3938" x2="38.8545" y2="41.6738" gradientUnits="userSpaceOnUse">
<stop stop-color="#010101"/>
<stop offset="0.14" stop-color="#1F2A33"/>
<stop offset="0.32" stop-color="#425B6D"/>
<stop offset="0.4" stop-color="#637988"/>
<stop offset="0.52" stop-color="#8EA0AA"/>
<stop offset="0.58" stop-color="#9FAFB8"/>
<stop offset="0.6" stop-color="#ABB8C0"/>
<stop offset="0.68" stop-color="#C8D0D3"/>
<stop offset="0.72" stop-color="#D3D9DB"/>
<stop offset="0.74" stop-color="#CAD1D4"/>
<stop offset="0.77" stop-color="#B2BEC3"/>
<stop offset="0.8" stop-color="#8C9EA7"/>
<stop offset="0.81" stop-color="#899BA5"/>
<stop offset="0.9" stop-color="#425B6D"/>
<stop offset="1" stop-color="#010101"/>
</linearGradient>
<linearGradient id="paint3_linear_4_7431" x1="44.9477" y1="56.9536" x2="53.2277" y2="49.7403" gradientUnits="userSpaceOnUse">
<stop stop-color="#010101"/>
<stop offset="0.29" stop-color="#1F2A33"/>
<stop offset="0.65" stop-color="#425B6D"/>
<stop offset="0.66" stop-color="#496172"/>
<stop offset="0.67" stop-color="#607685"/>
<stop offset="0.68" stop-color="#728793"/>
<stop offset="0.69" stop-color="#7F929D"/>
<stop offset="0.71" stop-color="#8699A3"/>
<stop offset="0.76" stop-color="#899BA5"/>
<stop offset="0.87" stop-color="#425B6D"/>
<stop offset="1" stop-color="#010101"/>
</linearGradient>
<linearGradient id="paint4_linear_4_7431" x1="52.2544" y1="65.3669" x2="60.5476" y2="58.1536" gradientUnits="userSpaceOnUse">
<stop stop-color="#010101"/>
<stop offset="0.02" stop-color="#070809"/>
<stop offset="0.46" stop-color="#788C9A"/>
<stop offset="0.65" stop-color="#A6C2D5"/>
<stop offset="0.66" stop-color="#BFD3E1"/>
<stop offset="0.67" stop-color="#D6E3EC"/>
<stop offset="0.68" stop-color="#E8EFF4"/>
<stop offset="0.7" stop-color="#F5F8FA"/>
<stop offset="0.72" stop-color="#FCFDFE"/>
<stop offset="0.76" stop-color="white"/>
<stop offset="0.87" stop-color="#A6C2D5"/>
<stop offset="1" stop-color="#010101"/>
</linearGradient>
<linearGradient id="paint5_linear_4_7431" x1="34.9745" y1="42.8071" x2="40.7078" y2="37.8205" gradientUnits="userSpaceOnUse">
<stop stop-color="#1C2226"/>
<stop offset="0.19" stop-color="#626C74"/>
<stop offset="0.22" stop-color="#6C767D"/>
<stop offset="0.39" stop-color="#B2B5B9"/>
<stop offset="0.51" stop-color="#DDDDDE"/>
<stop offset="0.58" stop-color="#EEEDED"/>
<stop offset="0.62" stop-color="#F4F4F4"/>
<stop offset="0.72" stop-color="white"/>
<stop offset="0.76" stop-color="#F6F8F9"/>
<stop offset="0.81" stop-color="#E6ECF0"/>
<stop offset="0.93" stop-color="#889BA9"/>
<stop offset="1" stop-color="#5D6F7E"/>
</linearGradient>
<radialGradient id="paint6_radial_4_7431" cx="0" cy="0" r="1" gradientUnits="userSpaceOnUse" gradientTransform="translate(44.3611 22.7272) scale(35.5331 35.5331)">
<stop stop-color="white"/>
<stop offset="0.12" stop-color="#D9DFE3"/>
<stop offset="0.33" stop-color="#A0AFB9"/>
<stop offset="0.4" stop-color="#92A2AD"/>
<stop offset="0.54" stop-color="#6D8290"/>
<stop offset="0.68" stop-color="#425B6D"/>
<stop offset="0.8" stop-color="#283548"/>
<stop offset="0.9" stop-color="#121528"/>
<stop offset="0.99" stop-color="#020204"/>
<stop offset="1" stop-color="#010101"/>
</radialGradient>
<radialGradient id="paint7_radial_4_7431" cx="0" cy="0" r="1" gradientUnits="userSpaceOnUse" gradientTransform="translate(20.7326 43.6422) scale(61.3442 61.3442)">
<stop stop-color="#F8FBFE"/>
<stop offset="0.11" stop-color="#F1F9FE"/>
<stop offset="0.14" stop-color="#E7EFF5"/>
<stop offset="0.2" stop-color="#CCD7DD"/>
<stop offset="0.27" stop-color="#A2AEB6"/>
<stop offset="0.36" stop-color="#667681"/>
<stop offset="0.46" stop-color="#62707A"/>
<stop offset="0.47" stop-color="white"/>
<stop offset="0.52" stop-color="#F5F6F6"/>
<stop offset="0.6" stop-color="#DADEE0"/>
<stop offset="0.71" stop-color="#B0B7BB"/>
<stop offset="0.83" stop-color="#748189"/>
<stop offset="0.98" stop-color="#2A3C49"/>
<stop offset="1" stop-color="#1D313E"/>
</radialGradient>
<radialGradient id="paint8_radial_4_7431" cx="0" cy="0" r="1" gradientUnits="userSpaceOnUse" gradientTransform="translate(14.468 32.8206) scale(72.9461 72.9461)">
<stop stop-color="white"/>
<stop offset="0.26" stop-color="#D0EBF6"/>
<stop offset="0.56" stop-color="#7CCDEE"/>
<stop offset="0.76" stop-color="#33BEEC"/>
<stop offset="1" stop-color="#20ADE5"/>
</radialGradient>
<radialGradient id="paint9_radial_4_7431" cx="0" cy="0" r="1" gradientUnits="userSpaceOnUse" gradientTransform="translate(14.468 32.8206) scale(72.9461 72.9459)">
<stop stop-color="white"/>
<stop offset="0.26" stop-color="#D0EBF6"/>
<stop offset="0.56" stop-color="#7CCDEE"/>
<stop offset="0.76" stop-color="#33BEEC"/>
<stop offset="1" stop-color="#20ADE5"/>
</radialGradient>
<radialGradient id="paint10_radial_4_7431" cx="0" cy="0" r="1" gradientUnits="userSpaceOnUse" gradientTransform="translate(28.0012 20.8739) scale(25.2798 25.2798)">
<stop offset="0.14" stop-color="#CBE9F5"/>
<stop offset="0.64" stop-color="#6CBDD5"/>
<stop offset="1" stop-color="#35738B"/>
</radialGradient>
<radialGradient id="paint11_radial_4_7431" cx="0" cy="0" r="1" gradientUnits="userSpaceOnUse" gradientTransform="translate(30.3745 12.5538) scale(20.8398 20.8398)">
<stop offset="0.14" stop-color="#CBE9F5"/>
<stop offset="0.64" stop-color="#6CBDD5"/>
<stop offset="1" stop-color="#35738B"/>
</radialGradient>
<linearGradient id="paint12_linear_4_7431" x1="35.1078" y1="24.7405" x2="18.7746" y2="6.78063" gradientUnits="userSpaceOnUse">
<stop stop-color="#010101"/>
<stop offset="0.14" stop-color="#1F2A33"/>
<stop offset="0.32" stop-color="#425B6D"/>
<stop offset="0.4" stop-color="#637988"/>
<stop offset="0.52" stop-color="#8EA0AA"/>
<stop offset="0.58" stop-color="#9FAFB8"/>
<stop offset="0.6" stop-color="#ABB8C0"/>
<stop offset="0.68" stop-color="#C8D0D3"/>
<stop offset="0.72" stop-color="#D3D9DB"/>
<stop offset="0.74" stop-color="#CAD1D4"/>
<stop offset="0.77" stop-color="#B2BEC3"/>
<stop offset="0.8" stop-color="#8C9EA7"/>
<stop offset="0.81" stop-color="#899BA5"/>
<stop offset="0.9" stop-color="#425B6D"/>
<stop offset="1" stop-color="#010101"/>
</linearGradient>
<radialGradient id="paint13_radial_4_7431" cx="0" cy="0" r="1" gradientUnits="userSpaceOnUse" gradientTransform="translate(24.6812 12.7006) scale(18.7065 18.7065)">
<stop stop-color="white"/>
<stop offset="0.36" stop-color="#D0EBF6"/>
<stop offset="0.7" stop-color="#33BEEC"/>
<stop offset="1" stop-color="#128AB8"/>
</radialGradient>
<radialGradient id="paint14_radial_4_7431" cx="0" cy="0" r="1" gradientUnits="userSpaceOnUse" gradientTransform="translate(18.8946 12.0207) scale(11.2266 11.2267)">
<stop stop-color="white"/>
<stop offset="0.36" stop-color="#D0EBF6"/>
<stop offset="0.7" stop-color="#33BEEC"/>
<stop offset="1" stop-color="#128AB8"/>
</radialGradient>
</defs>
</svg>
