<svg width="690" height="189" viewBox="0 0 690 189" fill="none" xmlns="http://www.w3.org/2000/svg">
<path d="M230.033 97.926C230.033 98.7394 229.9 99.2327 229.646 99.4327C229.38 99.646 228.846 99.7394 228.046 99.7394H221.473C220.846 99.7394 220.353 99.6194 220.006 99.3927C219.659 99.166 219.486 98.6727 219.486 97.926V54.6715C219.486 52.6447 219.726 50.7113 220.22 48.8313C220.713 46.9512 221.566 45.2979 222.766 43.8578C223.98 42.4044 225.566 41.2577 227.526 40.3911C229.486 39.5244 231.94 39.0844 234.873 39.0844H258.661C259.474 39.0844 259.967 39.2444 260.181 39.551C260.381 39.871 260.474 40.3777 260.474 41.0711V46.4312C260.474 47.1779 260.367 47.6979 260.141 47.9779C259.901 48.2713 259.421 48.4179 258.661 48.4179H235.993C233.807 48.4179 232.26 48.8846 231.366 49.8447C230.473 50.8047 230.02 52.1914 230.02 54.0448V97.9127L230.033 97.926Z" fill="#27519B"/>
<path d="M301.422 58.205C301.422 57.2183 301.248 56.1649 300.942 55.0049C300.622 53.8449 300.075 52.7915 299.302 51.8448C298.515 50.8848 297.435 50.0981 296.048 49.4581C294.662 48.8181 292.902 48.498 290.768 48.498H277.954V67.6986H290.941C294.568 67.6986 297.222 66.8052 298.888 65.0185C300.568 63.2318 301.408 60.9651 301.408 58.1917M277.874 97.8994C277.874 98.7128 277.754 99.2061 277.488 99.4061C277.221 99.6195 276.688 99.7128 275.888 99.7128H269.408C268.768 99.7128 268.274 99.5928 267.941 99.3661C267.581 99.1395 267.421 98.6461 267.421 97.8994V43.9113C267.421 42.2979 267.767 41.0712 268.461 40.2312C269.154 39.4045 270.421 38.9778 272.274 38.9778H292.862C295.742 38.9778 298.395 39.4178 300.782 40.3245C303.168 41.2178 305.222 42.4845 306.915 44.1246C308.609 45.778 309.942 47.738 310.902 50.0048C311.862 52.2982 312.329 54.7782 312.329 57.4983C312.329 59.045 312.075 60.9117 311.595 63.0851C311.102 65.2452 310.129 67.3386 308.662 69.352C307.182 71.3787 305.129 73.0854 302.475 74.4988C299.822 75.9122 296.328 76.6188 292.008 76.6188H277.901V97.8994H277.874Z" fill="#27519B"/>
<path d="M333.769 77.4988H350.383L345.876 62.9651L342.25 50.6847H341.823L338.263 62.7118L333.756 77.5122L333.769 77.4988ZM353.157 86.4991H331.183L327.369 98.2727C327.196 98.7928 326.956 99.1661 326.636 99.3928C326.316 99.6195 325.809 99.7395 325.116 99.7395H317.156C316.529 99.7395 316.129 99.5528 315.956 99.1794C315.782 98.8061 315.782 98.3928 315.956 97.9261L334.649 43.1512C334.929 42.2845 335.223 41.6045 335.516 41.0711C335.809 40.5511 336.169 40.1645 336.596 39.8711C337.036 39.5911 337.543 39.3644 338.116 39.2178C338.689 39.0711 339.37 38.9911 340.196 38.9911H343.903C345.703 38.9911 346.97 39.2711 347.716 39.8178C348.476 40.3645 349.13 41.4712 349.703 43.1379L368.477 97.9127C368.65 98.3794 368.664 98.7928 368.517 99.1661C368.37 99.5395 367.984 99.7261 367.357 99.7261H359.397C358.757 99.7261 358.25 99.6461 357.877 99.4995C357.503 99.3661 357.21 98.9794 356.97 98.3394L353.157 86.4858V86.4991Z" fill="#27519B"/>
<path d="M386.117 66.9518C384.211 65.8585 382.691 64.4051 381.531 62.5784C380.371 60.765 379.504 58.6449 378.931 56.2182L375.13 40.7378C375.01 40.4444 374.997 40.0844 375.077 39.6577C375.17 39.2177 375.597 39.0044 376.331 39.0044H383.424C383.717 39.0044 384.037 39.0577 384.424 39.1777C384.811 39.2977 385.037 39.6444 385.157 40.2178L388.878 54.8448C389.398 56.6849 390.038 58.1649 390.824 59.2583C391.611 60.3517 392.438 61.1917 393.344 61.765C394.238 62.3384 395.171 62.6984 396.158 62.8451C397.131 62.9917 398.051 63.0717 398.931 63.0717H406.891V40.5778C406.771 39.9511 406.825 39.5644 407.065 39.4177C407.291 39.2711 407.705 39.1911 408.278 39.1911H415.718C416.238 39.1911 416.625 39.2711 416.892 39.4177C417.145 39.5644 417.278 39.9511 417.278 40.5778V63.0717H425.145C426.012 63.0717 426.945 62.9917 427.919 62.8451C428.905 62.6984 429.839 62.3384 430.732 61.765C431.625 61.1917 432.465 60.3517 433.239 59.2583C434.025 58.1516 434.679 56.6849 435.186 54.8448L438.999 40.2178C439.119 39.6444 439.359 39.2977 439.732 39.1777C440.106 39.0577 440.439 39.0044 440.732 39.0044H447.826C448.586 39.0044 448.999 39.2177 449.079 39.6577C449.159 40.0844 449.159 40.4444 449.039 40.7378L445.226 56.2182C444.652 58.6449 443.772 60.765 442.586 62.5784C441.399 64.4051 439.892 65.8585 438.039 66.9518V67.3785C439.546 67.8985 440.772 68.4852 441.759 69.1519C442.732 69.8186 443.546 70.6053 444.186 71.4853C444.812 72.3787 445.319 73.3654 445.692 74.4187C446.066 75.4854 446.426 76.6588 446.773 77.9388L452.146 98.006C452.266 98.2994 452.266 98.6594 452.186 99.0861C452.106 99.5261 451.679 99.7394 450.933 99.7394H443.239C442.946 99.7394 442.639 99.6861 442.279 99.5661C441.932 99.4461 441.679 99.0994 441.506 98.5261L436.399 79.5655C435.946 78.0188 435.426 76.7254 434.852 75.7121C434.279 74.6987 433.545 73.9254 432.692 73.3787C431.825 72.832 430.812 72.4453 429.665 72.2187C428.505 71.992 427.185 71.872 425.692 71.872H417.305V98.3527C417.305 98.9927 417.172 99.3794 416.918 99.5261C416.652 99.6594 416.265 99.7394 415.745 99.7394H408.398C407.825 99.7394 407.411 99.6594 407.185 99.5261C406.958 99.3794 406.838 98.9927 406.838 98.3527L406.931 71.872H398.544C397.038 71.872 395.718 71.992 394.558 72.2187C393.398 72.4453 392.398 72.832 391.531 73.3787C390.664 73.9387 389.918 74.7121 389.291 75.7121C388.664 76.7254 388.131 78.0055 387.731 79.5655L382.717 98.5261C382.544 99.0994 382.291 99.4461 381.944 99.5661C381.597 99.6861 381.277 99.7394 380.984 99.7394H373.29C372.53 99.7394 372.13 99.5261 372.037 99.0861C371.957 98.6594 371.97 98.2994 372.077 98.006L377.451 77.9388C377.797 76.7255 378.157 75.5788 378.531 74.5254C378.904 73.4587 379.411 72.4853 380.037 71.5786C380.677 70.6853 381.491 69.8853 382.464 69.1919C383.451 68.4986 384.691 67.8985 386.184 67.3785V66.9518H386.117Z" fill="#27519B"/>
<path d="M499.467 48.4314H480.613L478.533 65.5652C478.013 70.0586 477.547 73.6987 477.147 76.4588C476.747 79.2322 476.333 81.4856 475.947 83.2057C475.533 84.939 475.12 86.3124 474.693 87.3124C474.267 88.3258 473.733 89.3525 473.093 90.3925H499.481V48.4314H499.467ZM465.986 99.7395L464.946 112.46C464.88 113.086 464.746 113.513 464.52 113.713C464.293 113.913 463.946 114.02 463.48 114.02H457.759C457.359 114.02 457.039 113.913 456.813 113.713C456.586 113.513 456.439 113.1 456.373 112.46L455.173 94.726C455.173 93.7393 455.359 92.8326 455.733 91.9926C456.106 91.1525 456.946 90.6859 458.28 90.5659L461.4 90.2992C462.44 89.1392 463.293 87.9525 463.946 86.7124C464.613 85.4591 465.16 84.1257 465.586 82.6856C466.013 81.2456 466.373 79.6456 466.666 77.8855C466.946 76.1388 467.24 74.1521 467.533 71.9653L471.093 44.4446C471.373 42.6579 472.013 41.3245 472.987 40.4711C473.973 39.6044 475.467 39.1644 477.48 39.1644H504.214C506.347 39.1644 507.828 39.6311 508.668 40.5911C509.494 41.5512 509.921 43.0045 509.921 44.9646V90.4725L513.468 90.6459C514.854 90.7659 515.708 91.1525 516.028 91.8059C516.348 92.4726 516.468 93.1793 516.414 93.926L515.294 112.446C515.228 113.073 515.108 113.5 514.908 113.7C514.694 113.9 514.374 114.007 513.908 114.007H508.108C507.641 114.007 507.334 113.9 507.148 113.7C506.974 113.5 506.868 113.087 506.814 112.446L506.294 99.7261H465.973L465.986 99.7395Z" fill="#27519B"/>
<path d="M537.708 77.4988H554.322L549.815 62.9651L546.189 50.6847H545.762L542.202 62.7118L537.695 77.5122L537.708 77.4988ZM557.096 86.4991H535.122L531.308 98.2727C531.135 98.7928 530.895 99.1661 530.575 99.3928C530.255 99.6195 529.762 99.7395 529.055 99.7395H521.095C520.468 99.7395 520.068 99.5528 519.895 99.1794C519.721 98.8061 519.721 98.3928 519.895 97.9261L538.588 43.1512C538.868 42.2845 539.162 41.6045 539.455 41.0711C539.748 40.5511 540.109 40.1645 540.535 39.8711C540.975 39.5911 541.482 39.3644 542.055 39.2178C542.629 39.0711 543.309 38.9911 544.135 38.9911H547.842C549.642 38.9911 550.909 39.2711 551.655 39.8178C552.416 40.3645 553.069 41.4712 553.642 43.1379L572.416 97.9127C572.589 98.3794 572.603 98.7928 572.456 99.1661C572.309 99.5395 571.923 99.7261 571.296 99.7261H563.336C562.696 99.7261 562.189 99.6461 561.816 99.4995C561.442 99.3661 561.149 98.9794 560.909 98.3394L557.096 86.4858V86.4991Z" fill="#27519B"/>
<path d="M627.564 99.4328C627.298 99.6328 626.764 99.7394 625.964 99.7394H619.404C618.711 99.7394 618.204 99.6194 617.884 99.3928C617.564 99.1661 617.417 98.6727 617.417 97.9261V72.4853H590.51V97.9261C590.51 98.7394 590.363 99.2328 590.07 99.4328C589.79 99.6328 589.23 99.7394 588.43 99.7394H581.87C581.23 99.7394 580.736 99.6194 580.403 99.3928C580.043 99.1661 579.883 98.6727 579.883 97.9261V40.9911C579.883 40.2444 580.056 39.7511 580.403 39.5244C580.736 39.2977 581.23 39.1777 581.87 39.1777H588.43C589.243 39.1777 589.79 39.2844 590.07 39.4844C590.363 39.6844 590.51 40.1911 590.51 40.9911V63.3917H617.417V40.9911C617.417 40.2444 617.577 39.7511 617.884 39.5244C618.191 39.2977 618.711 39.1777 619.404 39.1777H625.964C626.778 39.1777 627.311 39.2844 627.564 39.4844C627.831 39.6844 627.951 40.1911 627.951 40.9911V97.9261C627.951 98.7394 627.831 99.2328 627.564 99.4328Z" fill="#27519B"/>
<path d="M678.912 54.3114L671.299 67.4718L654.258 96.0193C653.392 97.4593 652.605 98.446 651.925 98.9527C651.218 99.4727 650.098 99.7261 648.552 99.7261H645.525C643.565 99.7261 642.245 99.286 641.551 98.3927C640.858 97.486 640.511 96.206 640.511 94.5392V40.5511C640.511 39.9244 640.631 39.511 640.898 39.351C641.151 39.1777 641.565 39.0844 642.151 39.0844H649.338C649.978 39.0844 650.405 39.1644 650.645 39.351C650.872 39.5244 650.992 39.9244 650.992 40.5511V84.339H651.338L658.512 72.2186L675.992 42.8845C676.859 41.3777 677.632 40.3777 678.326 39.8577C679.019 39.3377 680.126 39.0844 681.619 39.0844H684.739C686.633 39.0844 687.953 39.4977 688.673 40.3377C689.393 41.1777 689.753 42.5244 689.753 44.3512V98.2593C689.753 98.8994 689.633 99.2994 689.366 99.4727C689.099 99.646 688.686 99.7261 688.113 99.7261H680.926C680.286 99.7261 679.859 99.646 679.619 99.4727C679.392 99.2994 679.272 98.8994 679.272 98.2593V54.3114H678.926H678.912Z" fill="#27519B"/>
<path d="M226.54 170.488C226.3 170.661 225.953 170.755 225.486 170.755H221.873C221.406 170.755 221.046 170.675 220.78 170.488C220.513 170.315 220.38 169.955 220.38 169.421V125.38C220.38 124.847 220.513 124.487 220.78 124.313C221.046 124.14 221.406 124.047 221.873 124.047H225.486C225.953 124.047 226.3 124.127 226.54 124.313C226.766 124.487 226.886 124.847 226.886 125.38V142.914H251.714V125.38C251.714 124.847 251.834 124.487 252.087 124.313C252.314 124.14 252.687 124.047 253.167 124.047H256.874C257.407 124.047 257.767 124.127 257.954 124.313C258.127 124.487 258.221 124.847 258.221 125.38V169.421C258.221 169.955 258.127 170.315 257.954 170.488C257.767 170.661 257.407 170.755 256.874 170.755H253.167C252.687 170.755 252.314 170.675 252.087 170.488C251.847 170.315 251.714 169.955 251.714 169.421V148.514H226.886V169.421C226.886 169.955 226.766 170.315 226.54 170.488Z" fill="#27519B"/>
<path d="M297.555 147.087H286.075C285.008 147.087 283.741 147.167 282.248 147.354C280.768 147.527 279.368 147.967 278.034 148.661C276.688 149.341 275.568 150.354 274.648 151.701C273.728 153.034 273.274 154.874 273.274 157.194C273.274 158.981 273.608 160.461 274.288 161.661C274.968 162.848 275.888 163.795 277.048 164.528C278.208 165.248 279.528 165.728 281.008 165.995C282.488 166.261 284.035 166.408 285.635 166.408C286.168 166.408 286.888 166.381 287.821 166.315C288.728 166.248 289.768 166.168 290.901 166.048C292.022 165.928 293.168 165.728 294.315 165.461C295.475 165.195 296.555 164.888 297.568 164.528V147.101L297.555 147.087ZM304.222 166.661C304.222 167.728 303.809 168.448 302.969 168.795C300.302 169.915 297.448 170.688 294.435 171.101C291.408 171.515 288.501 171.728 285.701 171.728C281.901 171.728 278.794 171.315 276.368 170.475C273.928 169.648 272.008 168.568 270.581 167.221C269.154 165.875 268.154 164.341 267.608 162.568C267.047 160.821 266.754 158.994 266.754 157.088C266.754 154.888 267.141 152.821 267.914 150.888C268.688 148.954 269.861 147.274 271.434 145.847C273.008 144.421 274.981 143.314 277.354 142.501C279.728 141.687 282.541 141.301 285.808 141.301H297.635V138.927C297.635 137.474 297.488 136.1 297.182 134.86C296.888 133.607 296.315 132.527 295.502 131.647C294.662 130.78 293.515 130.087 292.022 129.594C290.541 129.087 288.608 128.834 286.248 128.834C284.301 128.834 282.141 129.034 279.795 129.42C277.461 129.794 275.448 130.26 273.781 130.794C273.368 130.914 273.048 130.967 272.808 130.927C272.568 130.9 272.394 130.674 272.274 130.26L271.381 127.033C271.208 126.367 271.448 125.927 272.088 125.687C273.154 125.273 274.314 124.887 275.554 124.553C276.808 124.233 278.088 123.94 279.421 123.687C280.755 123.447 282.101 123.287 283.475 123.193C284.848 123.1 286.115 123.06 287.301 123.06C293.048 123.06 297.315 124.34 300.062 126.887C302.808 129.434 304.209 133.167 304.209 138.1V166.661H304.222Z" fill="#27519B"/>
<path d="M342.57 170.528C342.396 170.675 342.063 170.755 341.596 170.755H337.676C337.209 170.755 336.863 170.675 336.663 170.528C336.449 170.381 336.343 170.061 336.343 169.595V125.18C336.343 124.713 336.449 124.407 336.663 124.247C336.876 124.1 337.209 124.02 337.676 124.02H341.596C342.063 124.02 342.396 124.1 342.57 124.247C342.743 124.393 342.836 124.713 342.836 125.18V143.074H352.103C353.05 143.074 353.957 142.981 354.823 142.807C355.677 142.634 356.477 142.314 357.223 141.847C357.957 141.381 358.623 140.687 359.223 139.807C359.81 138.927 360.317 137.807 360.73 136.434L364.29 125.007C364.41 124.54 364.57 124.247 364.784 124.167C364.984 124.073 365.237 124.033 365.544 124.033H369.557C370.024 124.033 370.317 124.167 370.397 124.433C370.49 124.7 370.504 124.993 370.45 125.287L367.064 137.007C366.53 138.901 365.837 140.607 364.97 142.114C364.104 143.621 362.877 144.741 361.277 145.434L361.183 145.607C363.437 146.274 365.05 147.341 366.037 148.821C367.01 150.314 367.797 152.034 368.384 153.994L372.93 169.421C372.997 169.715 372.997 170.008 372.93 170.315C372.877 170.608 372.57 170.755 372.037 170.755H367.69C367.45 170.755 367.21 170.715 366.984 170.621C366.744 170.541 366.57 170.288 366.45 169.861L362.09 154.994C361.33 152.514 360.103 150.794 358.437 149.834C356.783 148.888 354.997 148.421 353.103 148.421H342.863V169.595C342.863 170.061 342.783 170.381 342.596 170.528" fill="#27519B"/>
<path d="M411.625 156.688C411.625 154.208 410.785 152.194 409.091 150.674C407.398 149.167 404.865 148.407 401.491 148.407H386.091V165.581H401.491C403.625 165.581 405.358 165.288 406.691 164.701C408.038 164.101 409.051 163.355 409.771 162.475C410.492 161.581 410.972 160.621 411.238 159.581C411.505 158.541 411.638 157.581 411.638 156.688M386.091 143.074H401.758C402.465 143.074 403.278 142.967 404.198 142.767C405.105 142.554 405.971 142.194 406.785 141.661C407.585 141.141 408.251 140.421 408.785 139.541C409.305 138.661 409.585 137.54 409.585 136.18C409.585 134.34 408.945 132.807 407.678 131.527C406.398 130.274 404.638 129.634 402.385 129.634H386.091V143.074ZM409.945 145.661C411.545 146.141 412.878 146.767 413.958 147.567C415.012 148.381 415.878 149.301 416.545 150.328C417.198 151.381 417.652 152.488 417.918 153.674C418.185 154.861 418.318 156.008 418.318 157.141C418.318 159.154 417.932 160.994 417.158 162.648C416.385 164.315 415.318 165.755 413.958 166.968C412.598 168.181 410.972 169.115 409.105 169.768C407.238 170.421 405.185 170.741 402.931 170.741H383.171C380.797 170.741 379.611 169.648 379.611 167.461V127.327C379.611 125.127 380.797 124.033 383.171 124.033H402.225C406.318 124.033 409.678 124.967 412.332 126.834C414.958 128.7 416.292 131.634 416.292 135.594C416.292 137.554 415.772 139.447 414.745 141.247C413.705 143.061 412.145 144.381 410.078 145.207L409.985 145.647L409.945 145.661Z" fill="#27519B"/>
<path d="M455.599 147.087H444.119C443.052 147.087 441.786 147.167 440.292 147.354C438.812 147.527 437.412 147.967 436.079 148.661C434.732 149.341 433.612 150.354 432.692 151.701C431.772 153.034 431.319 154.874 431.319 157.194C431.319 158.981 431.652 160.461 432.332 161.661C433.012 162.848 433.932 163.795 435.092 164.528C436.252 165.248 437.572 165.728 439.052 165.995C440.532 166.261 442.079 166.408 443.679 166.408C444.212 166.408 444.932 166.381 445.866 166.315C446.773 166.248 447.813 166.168 448.946 166.048C450.066 165.928 451.213 165.728 452.359 165.461C453.519 165.195 454.599 164.888 455.613 164.528V147.101L455.599 147.087ZM462.266 166.661C462.266 167.728 461.853 168.448 461.013 168.795C458.346 169.915 455.493 170.688 452.479 171.101C449.453 171.515 446.546 171.728 443.746 171.728C439.946 171.728 436.839 171.315 434.412 170.475C431.972 169.648 430.052 168.568 428.625 167.221C427.199 165.875 426.199 164.341 425.652 162.568C425.092 160.821 424.799 158.994 424.799 157.088C424.799 154.888 425.185 152.821 425.959 150.888C426.732 148.954 427.905 147.274 429.479 145.847C431.052 144.421 433.025 143.314 435.399 142.501C437.772 141.687 440.586 141.301 443.852 141.301H455.679V138.927C455.679 137.474 455.533 136.1 455.239 134.86C454.933 133.607 454.373 132.527 453.546 131.647C452.706 130.78 451.559 130.087 450.079 129.594C448.586 129.087 446.666 128.834 444.292 128.834C442.346 128.834 440.186 129.034 437.839 129.42C435.506 129.794 433.492 130.26 431.839 130.794C431.425 130.914 431.092 130.967 430.852 130.927C430.612 130.9 430.439 130.674 430.319 130.26L429.439 127.033C429.252 126.367 429.492 125.927 430.145 125.687C431.212 125.273 432.372 124.887 433.612 124.553C434.866 124.233 436.146 123.94 437.479 123.687C438.812 123.447 440.159 123.287 441.532 123.193C442.906 123.1 444.172 123.06 445.359 123.06C451.106 123.06 455.373 124.34 458.119 126.887C460.893 129.434 462.266 133.167 462.266 138.1V166.661Z" fill="#27519B"/>
<path d="M504.894 147.261C504.894 143.754 504.534 140.821 503.841 138.447C503.121 136.074 502.107 134.167 500.814 132.714C499.507 131.26 497.961 130.22 496.187 129.594C494.401 128.967 492.427 128.66 490.227 128.66C488.627 128.66 486.734 128.834 484.574 129.14C482.4 129.474 480.52 129.954 478.92 130.607V164.248C481.413 165.088 483.574 165.595 485.374 165.808C487.187 166.021 488.774 166.128 490.134 166.128C492.267 166.128 494.241 165.781 496.054 165.101C497.867 164.421 499.427 163.315 500.734 161.808C502.041 160.301 503.067 158.341 503.801 155.928C504.547 153.528 504.907 150.634 504.907 147.247M511.668 147.247C511.668 150.688 511.254 153.888 510.414 156.861C509.588 159.834 508.321 162.408 506.601 164.608C504.867 166.808 502.721 168.541 500.147 169.821C497.561 171.088 494.547 171.728 491.12 171.728C489.387 171.728 487.507 171.608 485.414 171.368C483.347 171.128 481.173 170.688 478.92 170.035V187.742C478.92 188.209 478.84 188.515 478.693 188.635C478.547 188.755 478.227 188.809 477.76 188.809H473.667C473.253 188.809 472.933 188.742 472.733 188.635C472.52 188.515 472.413 188.222 472.413 187.742V127.674C472.413 126.967 472.733 126.487 473.387 126.247C476.24 124.993 479.213 124.153 482.333 123.713C485.454 123.273 488.427 123.047 491.267 123.047C494.774 123.047 497.814 123.647 500.387 124.833C502.974 126.02 505.081 127.687 506.748 129.82C508.414 131.954 509.641 134.514 510.454 137.474C511.254 140.447 511.654 143.701 511.654 147.261" fill="#27519B"/>
<path d="M536.975 170.488C536.762 170.661 536.415 170.755 535.935 170.755H532.228C531.695 170.755 531.322 170.675 531.108 170.488C530.895 170.315 530.788 169.928 530.788 169.328V129.634H516.548C515.961 129.634 515.574 129.527 515.388 129.314C515.214 129.114 515.121 128.794 515.121 128.38V125.447C515.121 124.98 515.201 124.62 515.388 124.38C515.561 124.153 515.948 124.033 516.548 124.033H552.322C552.909 124.033 553.282 124.153 553.429 124.38C553.576 124.62 553.656 124.98 553.656 125.447V128.38C553.656 128.794 553.589 129.114 553.429 129.314C553.282 129.527 552.909 129.634 552.322 129.634H537.282V169.328C537.282 169.915 537.175 170.301 536.962 170.488" fill="#27519B"/>
<path d="M587.75 147.087H576.27C575.203 147.087 573.936 147.167 572.443 147.354C570.963 147.527 569.563 147.967 568.229 148.661C566.883 149.341 565.763 150.354 564.843 151.701C563.922 153.034 563.469 154.874 563.469 157.194C563.469 158.981 563.802 160.461 564.483 161.661C565.163 162.848 566.083 163.795 567.243 164.528C568.403 165.248 569.723 165.728 571.203 165.995C572.683 166.261 574.229 166.408 575.829 166.408C576.363 166.408 577.083 166.381 578.016 166.315C578.923 166.248 579.963 166.168 581.096 166.048C582.216 165.928 583.363 165.728 584.51 165.461C585.67 165.195 586.75 164.888 587.763 164.528V147.101L587.75 147.087ZM594.417 166.661C594.417 167.728 594.003 168.448 593.163 168.795C590.497 169.915 587.643 170.688 584.63 171.101C581.603 171.515 578.696 171.728 575.896 171.728C572.096 171.728 568.989 171.315 566.563 170.475C564.122 169.648 562.202 168.568 560.776 167.221C559.349 165.875 558.349 164.341 557.802 162.568C557.242 160.821 556.949 158.994 556.949 157.088C556.949 154.888 557.336 152.821 558.109 150.888C558.882 148.954 560.056 147.274 561.629 145.847C563.202 144.421 565.176 143.314 567.549 142.501C569.923 141.687 572.736 141.301 576.003 141.301H587.83V138.927C587.83 137.474 587.683 136.1 587.39 134.86C587.083 133.607 586.523 132.527 585.696 131.647C584.856 130.78 583.71 130.087 582.23 129.594C580.736 129.087 578.816 128.834 576.443 128.834C574.496 128.834 572.336 129.034 569.989 129.42C567.656 129.794 565.643 130.26 563.989 130.794C563.576 130.914 563.242 130.967 563.002 130.927C562.762 130.9 562.589 130.674 562.469 130.26L561.589 127.033C561.402 126.367 561.642 125.927 562.296 125.687C563.362 125.273 564.523 124.887 565.763 124.553C567.016 124.233 568.296 123.94 569.629 123.687C570.963 123.447 572.309 123.287 573.683 123.193C575.056 123.1 576.323 123.06 577.51 123.06C583.256 123.06 587.523 124.34 590.27 126.887C593.03 129.434 594.417 133.167 594.417 138.1V166.661Z" fill="#27519B"/>
<path d="M611.244 128.1C611.31 126.647 611.697 125.62 612.404 124.98C613.111 124.34 614.071 124.02 615.257 124.02H638.538C640.085 124.02 641.111 124.367 641.618 125.06C642.125 125.754 642.378 126.767 642.378 128.087V169.661C642.378 170.141 642.271 170.448 642.058 170.595C641.845 170.741 641.471 170.821 640.938 170.821H637.325C636.845 170.821 636.485 170.741 636.244 170.595C636.004 170.448 635.884 170.141 635.884 169.661V129.807H617.017L616.484 137.007C616.017 142.887 615.537 147.821 615.057 151.821C614.591 155.834 613.884 159.168 612.924 161.835C611.977 164.501 610.657 166.608 608.964 168.155C607.27 169.701 605.004 170.941 602.15 171.901C601.79 172.021 601.443 172.088 601.123 172.128C600.803 172.155 600.55 171.928 600.363 171.461L599.39 168.435C599.27 167.955 599.27 167.621 599.39 167.408C599.51 167.195 599.803 166.981 600.27 166.741C602.11 165.981 603.604 164.995 604.764 163.808C605.924 162.621 606.857 160.995 607.604 158.914C608.35 156.834 608.924 154.141 609.35 150.821C609.764 147.501 610.15 143.287 610.51 138.181L611.23 128.1H611.244Z" fill="#27519B"/>
<path d="M681.366 147.087H669.885C668.819 147.087 667.552 147.167 666.059 147.354C664.579 147.527 663.179 147.967 661.845 148.661C660.498 149.341 659.378 150.354 658.458 151.701C657.538 153.034 657.085 154.874 657.085 157.194C657.085 158.981 657.418 160.461 658.098 161.661C658.778 162.848 659.698 163.795 660.859 164.528C662.019 165.248 663.339 165.728 664.819 165.995C666.299 166.261 667.845 166.408 669.445 166.408C669.979 166.408 670.699 166.381 671.632 166.315C672.539 166.248 673.579 166.168 674.712 166.048C675.832 165.928 676.979 165.728 678.126 165.461C679.286 165.195 680.366 164.888 681.379 164.528V147.101L681.366 147.087ZM688.033 166.661C688.033 167.728 687.619 168.448 686.779 168.795C684.112 169.915 681.259 170.688 678.246 171.101C675.219 171.515 672.312 171.728 669.512 171.728C665.712 171.728 662.605 171.315 660.178 170.475C657.738 169.648 655.818 168.568 654.392 167.221C652.965 165.875 651.965 164.341 651.418 162.568C650.858 160.821 650.565 158.994 650.565 157.088C650.565 154.888 650.952 152.821 651.725 150.888C652.498 148.954 653.672 147.274 655.245 145.847C656.818 144.421 658.792 143.314 661.165 142.501C663.539 141.687 666.352 141.301 669.619 141.301H681.446V138.927C681.446 137.474 681.299 136.1 681.006 134.86C680.699 133.607 680.139 132.527 679.312 131.647C678.472 130.78 677.326 130.087 675.832 129.594C674.352 129.087 672.432 128.834 670.059 128.834C668.112 128.834 665.952 129.034 663.605 129.42C661.272 129.794 659.258 130.26 657.592 130.794C657.178 130.914 656.858 130.967 656.618 130.927C656.378 130.9 656.205 130.674 656.085 130.26L655.192 127.033C655.018 126.367 655.258 125.927 655.898 125.687C656.965 125.273 658.125 124.887 659.365 124.553C660.619 124.233 661.899 123.94 663.232 123.687C664.565 123.447 665.912 123.287 667.285 123.193C668.659 123.1 669.925 123.06 671.112 123.06C676.859 123.06 681.126 124.34 683.872 126.887C686.633 129.434 688.019 133.167 688.019 138.1V166.661H688.033Z" fill="#27519B"/>
<path d="M137.751 188.809H125.43C118.737 188.809 113.297 183.368 113.297 176.675V107.246C113.297 105.113 111.563 103.379 109.443 103.366L96.5227 103.286C95.3493 103.313 94.496 103.673 93.7626 104.406C93.0159 105.14 92.6159 106.113 92.6159 107.153V176.675C92.6159 183.368 87.1758 188.809 80.4823 188.809H68.1619C61.4684 188.809 56.0282 183.368 56.0282 176.675V79.3921C56.0282 77.2587 54.2815 75.5254 52.1481 75.5254H40.4545C38.3211 75.5254 36.5877 77.2587 36.5877 79.3921V129.18C36.5877 135.874 31.1475 141.314 24.454 141.314H4.12012C1.84005 141.314 0 139.474 0 137.18C0 134.887 1.84005 133.06 4.12012 133.06H24.454C26.5874 133.06 28.3208 131.314 28.3208 129.18V79.3921C28.3208 72.6986 33.7609 67.2585 40.4545 67.2585H52.1481C58.8416 67.2585 64.2818 72.6986 64.2818 79.3921V176.688C64.2818 178.822 66.0285 180.555 68.1619 180.555H80.4823C82.6156 180.555 84.349 178.822 84.349 176.688V107.166C84.349 103.899 85.6157 100.846 87.9358 98.5527C90.2425 96.2593 93.2293 95.0059 96.5627 95.0326L109.496 95.1259C116.137 95.1659 121.55 100.606 121.55 107.26V176.688C121.55 178.822 123.283 180.555 125.417 180.555H137.737C139.871 180.555 141.604 178.822 141.604 176.688V50.6447C141.604 43.9511 147.044 38.511 153.738 38.511H166.058C172.752 38.511 178.192 43.9511 178.192 50.6447V105.66C178.192 107.793 179.938 109.526 182.072 109.526H202.392C204.672 109.526 206.526 111.366 206.526 113.66C206.526 115.953 204.672 117.793 202.392 117.793H182.072C175.378 117.793 169.938 112.353 169.938 105.66V50.6447C169.938 48.5113 168.191 46.7779 166.058 46.7779H153.738C151.604 46.7779 149.871 48.5246 149.871 50.6447V176.675C149.871 183.368 144.431 188.809 137.737 188.809" fill="#75ACD9"/>
<path d="M60.5083 42.6445C60.5083 50.4847 54.1348 56.8582 46.2946 56.8582C38.4544 56.8582 32.0809 50.4847 32.0809 42.6445C32.0809 34.8043 38.4544 28.4308 46.2946 28.4308C54.1348 28.4308 60.5083 34.8043 60.5083 42.6445Z" fill="#75ACD9"/>
<path d="M117.483 69.8985C117.483 77.7388 111.11 84.1123 103.27 84.1123C95.4294 84.1123 89.0558 77.7388 89.0558 69.8985C89.0558 62.0583 95.4294 55.6848 103.27 55.6848C111.11 55.6848 117.483 62.0583 117.483 69.8985Z" fill="#75ACD9"/>
<path d="M174.285 14.217C174.285 22.0572 167.911 28.4308 160.071 28.4308C152.231 28.4308 145.857 22.0572 145.857 14.217C145.857 6.37681 152.231 0.0032959 160.071 0.0032959C167.911 0.0032959 174.285 6.37681 174.285 14.217Z" fill="#75ACD9"/>
</svg>
