<svg width="28" height="43" viewBox="0 0 28 43" fill="none" xmlns="http://www.w3.org/2000/svg">
<path d="M20.5959 35.8099V37.4364C20.5959 38.7296 19.6493 39.8096 18.4094 39.9962L18.0094 41.4761C17.7961 42.276 17.0762 42.836 16.2362 42.836H12.2632C11.4233 42.836 10.7033 42.276 10.49 41.4761L10.1034 39.9962C8.85014 39.7962 7.90354 38.7296 7.90354 37.4364V35.8099C7.90354 34.9433 8.59683 34.2367 9.47676 34.2367H19.0493C19.9159 34.2367 20.6226 34.9433 20.6226 35.8232L20.5959 35.8099ZM27.9686 13.8782C27.9686 17.5846 26.5021 20.931 24.1156 23.3975C22.3024 25.2773 21.1425 27.6772 20.7425 30.2236C20.5692 31.3169 19.6226 32.1301 18.5027 32.1301H9.99672C8.89014 32.1301 7.91687 31.3302 7.75688 30.2236C7.35691 27.6638 6.17035 25.2374 4.37049 23.3708C2.03734 20.9444 0.584114 17.6379 0.544117 14.0116C0.464123 6.38549 6.53031 0.212635 14.1697 0.145974C21.7825 0.0926444 27.9686 6.25216 27.9686 13.8649V13.8782ZM15.7963 5.57222C15.7963 4.71895 15.103 4.02567 14.2497 4.02567C8.7968 4.02567 4.35714 8.46533 4.35714 13.9182C4.35714 14.7715 5.05043 15.4648 5.9037 15.4648C6.75696 15.4648 7.45025 14.7715 7.45025 13.9182C7.45025 10.1585 10.5033 7.11876 14.2497 7.11876C15.103 7.11876 15.7963 6.42549 15.7963 5.57222Z" fill="white"/>
</svg>
