<svg width="29" height="44" viewBox="0 0 29 44" fill="none" xmlns="http://www.w3.org/2000/svg">
<path d="M20.96 36.6421V38.2688C20.96 39.5621 20.0133 40.6421 18.7733 40.8288L18.3733 42.3088C18.16 43.1088 17.44 43.6688 16.6 43.6688H12.6267C11.7867 43.6688 11.0667 43.1088 10.8533 42.3088L10.4667 40.8288C9.21334 40.6288 8.26666 39.5621 8.26666 38.2688V36.6421C8.26666 35.7754 8.96001 35.0688 9.84001 35.0688H19.4133C20.28 35.0688 20.9867 35.7754 20.9867 36.6554L20.96 36.6421ZM28.3333 14.7088C28.3333 18.4154 26.8667 21.7621 24.48 24.2288C22.6667 26.1088 21.5067 28.5088 21.1067 31.0554C20.9333 32.1488 19.9867 32.9621 18.8667 32.9621H10.36C9.25334 32.9621 8.27999 32.1621 8.11999 31.0554C7.71999 28.4954 6.53334 26.0688 4.73334 24.2021C2.4 21.7754 0.946666 18.4688 0.906666 14.8421C0.826666 7.21544 6.89332 1.04211 14.5333 0.975441C22.1467 0.922108 28.3333 7.08211 28.3333 14.6954V14.7088ZM16.16 6.40211C16.16 5.54877 15.4667 4.85544 14.6133 4.85544C9.16001 4.85544 4.71999 9.29544 4.71999 14.7488C4.71999 15.6021 5.41333 16.2954 6.26666 16.2954C7.11999 16.2954 7.81333 15.6021 7.81333 14.7488C7.81333 10.9888 10.8667 7.94877 14.6133 7.94877C15.4667 7.94877 16.16 7.25544 16.16 6.40211Z" fill="#252849"/>
</svg>
