<svg width="52" height="57" viewBox="0 0 52 57" fill="none" xmlns="http://www.w3.org/2000/svg">
<path d="M19.1599 53.8516C19.1599 55.0649 18.1866 56.0383 16.9733 56.0383H9.65335C4.82672 56.0383 0.906738 52.1183 0.906738 47.2917V8.78529C0.906738 3.95866 4.82672 0.0386963 9.65335 0.0386963H36.5465C41.3731 0.0386963 45.2931 3.95866 45.2931 8.78529V22.2385C45.2931 23.4518 44.3197 24.4252 43.1064 24.4252C41.8931 24.4252 40.9198 23.4518 40.9198 22.2385V8.78529C40.9198 6.37198 38.9598 4.41199 36.5465 4.41199H9.65335C7.24004 4.41199 5.28006 6.37198 5.28006 8.78529V47.2917C5.28006 49.705 7.24004 51.665 9.65335 51.665H16.9733C18.1866 51.665 19.1599 52.6383 19.1599 53.8516ZM34.3598 13.1586H11.8267C10.6133 13.1586 9.64001 14.1319 9.64001 15.3452C9.64001 16.5586 10.6133 17.5319 11.8267 17.5319H34.3598C35.5731 17.5319 36.5465 16.5586 36.5465 15.3452C36.5465 14.1319 35.5731 13.1586 34.3598 13.1586ZM36.5465 24.0919C36.5465 22.8785 35.5731 21.9052 34.3598 21.9052H11.8267C10.6133 21.9052 9.64001 22.8785 9.64001 24.0919C9.64001 25.3052 10.6133 26.2785 11.8267 26.2785H34.3598C35.5731 26.2785 36.5465 25.3052 36.5465 24.0919ZM11.8267 30.6518C10.6133 30.6518 9.64001 31.6251 9.64001 32.8384C9.64001 34.0518 10.6133 35.0251 11.8267 35.0251H25.5066C26.7199 35.0251 27.6932 34.0518 27.6932 32.8384C27.6932 31.6251 26.7199 30.6518 25.5066 30.6518H11.8267ZM49.173 40.9851L37.1865 52.945C36.9198 53.2116 36.5865 53.3983 36.2265 53.505L27.3999 55.9449C27.2132 55.9983 27.0132 56.0249 26.8132 56.0249C26.2265 56.0249 25.6666 55.7983 25.2532 55.3716C24.6932 54.7983 24.4932 53.9716 24.7199 53.2116L27.3332 44.5983C27.4399 44.2517 27.6265 43.945 27.8799 43.6917L39.8931 31.7051C42.4531 29.1451 46.6131 29.1451 49.173 31.7051C51.733 34.2651 51.733 38.4251 49.173 40.9851ZM42.5597 41.3984L39.4664 38.3051L31.3598 46.385L30.0665 50.665L34.5065 49.4383L42.5597 41.3984ZM46.0797 34.7984C45.2264 33.9451 43.8398 33.9451 42.9864 34.7984L42.5597 35.2251L45.6531 38.3184L46.0797 37.8917C46.933 37.0384 46.933 35.6518 46.0797 34.7984Z" fill="#25509A"/>
</svg>
