<svg width="65" height="77" viewBox="0 0 65 77" fill="none" xmlns="http://www.w3.org/2000/svg">
<path d="M49.7186 0.261874C48.0919 0.488538 46.6386 1.02185 44.5853 2.11517C43.372 2.7685 42.9453 3.02184 42.1853 3.54184C41.6253 3.9285 40.812 4.66183 40.8653 4.71517C40.9053 4.75517 41.7186 4.52851 43.5319 3.96851C44.2786 3.75518 45.1319 3.50184 45.4386 3.42184C46.5852 3.11518 48.2252 2.84852 48.9452 2.84852C49.1719 2.84852 49.1853 2.84852 49.1853 3.04851V3.2485L48.7852 3.2885C47.9052 3.3685 46.0919 4.0085 44.4253 4.83516C40.652 6.71515 38.132 9.03513 37.852 10.8351C37.7987 11.2218 37.7853 11.2218 38.252 11.4351C38.532 11.5684 38.6653 11.5951 39.132 11.5951C39.4787 11.5951 39.6787 11.6218 39.6787 11.6618C39.6787 11.7951 39.372 12.7951 39.1053 13.5284C38.1986 16.0617 37.9186 17.075 37.812 18.1417C37.7853 18.3817 37.812 18.4217 37.8787 18.3684C38.0387 18.275 39.3053 16.9551 40.612 15.4884C42.8653 12.9818 44.0786 11.8218 45.3853 10.9418C47.8253 9.30178 50.1719 8.23511 52.3319 7.76845C53.6119 7.48845 53.8519 7.46181 55.3452 7.46181C57.1585 7.46181 57.6652 7.52847 60.3985 8.16847C61.6385 8.4618 62.6118 8.63511 62.7585 8.60845C62.8118 8.60845 62.4785 8.02179 61.6651 6.7418C59.7985 3.83516 59.4252 3.31518 58.5185 2.42185C57.2252 1.16853 55.9585 0.608508 53.7452 0.315177C52.6919 0.181845 50.4919 0.155208 49.7052 0.261874H49.7186Z" fill="#D7D8D9"/>
<path d="M13.0122 0.368458C11.9722 0.555123 11.5721 0.661794 10.7721 0.915125C8.0255 1.80845 6.06556 3.55509 4.5189 6.5284C4.07891 7.3684 3.57221 8.48839 3.61221 8.52839C3.66554 8.58172 4.71888 8.36838 5.78553 8.10171C7.89218 7.56839 8.53217 7.47505 10.0655 7.43505C11.0255 7.40839 11.4388 7.43508 11.9722 7.50174C15.1055 7.95507 18.1721 9.50173 21.6254 12.3817C22.7187 13.3017 23.7054 14.3017 24.692 15.5283C26.452 17.715 26.8254 18.1283 27.1454 18.275C27.3053 18.3416 27.4653 18.395 27.4787 18.395C27.532 18.3683 27.3854 17.4483 27.212 16.7017C27.1187 16.3417 26.852 15.4617 26.612 14.7417C26.0787 13.1684 25.7321 12.0617 25.6787 11.7817L25.6387 11.5684L26.0521 11.5284C26.6521 11.475 27.0921 11.3284 27.3454 11.0884C27.5587 10.8884 27.5587 10.875 27.532 10.5417C27.492 10.0751 27.252 9.66172 26.572 8.95506C25.4787 7.8084 23.7854 6.5684 21.5854 5.31507C19.5588 4.16842 17.2254 3.23509 16.3588 3.23509C16.1321 3.23509 16.1321 3.23509 16.1321 3.02176C16.1321 2.76843 16.1321 2.76843 17.0788 2.90176C18.8921 3.16843 22.0254 3.94177 23.5054 4.50177C24.0921 4.7151 24.1321 4.70175 23.8654 4.31508C22.9987 3.11509 20.3454 1.67512 17.4121 0.795131C15.4655 0.208469 14.3588 0.0884747 13.0122 0.341806V0.368458Z" fill="#D7D8D9"/>
<path d="M15.5455 14.6751C12.6789 14.8084 10.7189 15.5417 9.31887 16.9817C9.07887 17.235 8.59889 17.8084 8.25223 18.2617C7.46557 19.3017 6.99891 19.7684 6.54558 20.0084C6.09225 20.2484 5.78558 20.315 5.25225 20.3284C4.47892 20.3284 4.05224 20.0484 3.10558 18.8351C2.65225 18.2617 2.06559 17.6351 2.06559 17.7151C2.06559 17.7284 2.1456 17.995 2.23893 18.315C2.46559 19.0084 2.73226 19.5017 3.23892 20.1417C3.81225 20.875 3.97225 21.1017 3.94558 21.115C3.94558 21.115 3.66558 21.3017 3.35892 21.5017C2.53225 22.0484 2.03894 22.475 1.66561 22.915C1.49228 23.1284 1.33228 23.3283 1.33228 23.355C1.33228 23.4217 1.99892 23.1817 2.39892 22.955C2.82558 22.7284 3.8656 22.0217 3.91893 21.915C3.95893 21.8617 4.35891 22.1284 4.35891 22.2084C4.35891 22.235 4.10559 22.395 3.78559 22.5683C2.5456 23.235 1.42563 24.0483 1.22563 24.435C1.11897 24.6483 0.905604 25.2483 0.945604 25.2483C0.985604 25.2483 2.06562 24.4617 2.93228 23.795C3.95894 23.0217 4.46558 22.8083 5.57224 22.6883C6.3989 22.595 7.77224 22.6217 8.17223 22.715C8.34556 22.7684 8.9322 22.995 9.43886 23.2484C9.95886 23.4883 10.6389 23.7683 10.9455 23.8617C12.0655 24.2217 13.5322 24.4217 15.4255 24.5017L16.4788 24.5417V23.5817C16.4788 23.0617 16.4788 22.6217 16.4788 22.6217C13.9722 22.475 11.8255 22.1817 10.6789 21.8484C9.74556 21.5684 9.02556 21.0083 8.87889 20.475C8.3989 18.6884 12.1189 16.4084 15.8922 16.1551L16.4788 16.1151V15.3418C16.4788 14.9284 16.4788 14.5818 16.4788 14.5951C16.4788 14.5951 16.0388 14.6217 15.5455 14.6484V14.6751Z" fill="#D7D8D9"/>
<path d="M48.8252 15.3951V16.1551H49.6252C51.2252 16.1551 52.2119 16.3284 53.1318 16.7817C53.8385 17.1284 54.3585 17.5284 55.1585 18.315C55.9585 19.1017 56.2385 19.6084 56.3052 20.1684C56.4652 21.6484 54.3718 22.4217 49.7718 22.6083L48.8385 22.6483V24.555L49.8919 24.515C52.5452 24.4084 53.8251 24.1417 55.7318 23.3017C57.0118 22.7417 57.3318 22.675 58.6385 22.6617C59.5985 22.6617 59.8118 22.675 60.2784 22.795C61.1584 23.0217 61.9718 23.4617 63.2384 24.4083C63.8517 24.8617 64.3584 25.235 64.3851 25.235C64.4251 25.235 64.2651 24.8083 64.1051 24.4883C63.8784 24.0483 63.3584 23.6084 62.3718 23.0084C61.5984 22.5417 60.6785 21.9284 60.6785 21.875C60.6785 21.8484 61.1718 21.995 61.5585 22.155C61.7718 22.235 62.1584 22.4483 62.4384 22.6083C62.9717 22.9283 63.5718 23.2217 63.8518 23.2883L64.0118 23.3283L63.8384 23.075C63.5584 22.6617 62.9051 22.0883 62.1318 21.5683C61.7451 21.3017 61.4118 21.0884 61.3984 21.075C61.3851 21.0617 61.5718 20.795 61.8251 20.4484C62.3851 19.6617 62.4918 19.4884 62.6651 19.0217C62.8118 18.6217 62.9318 17.9417 62.8384 18.0484C62.7984 18.0751 62.5318 18.4084 62.2384 18.7817C61.6251 19.5284 61.0251 20.0351 60.5185 20.2217C60.2518 20.3284 60.0918 20.3417 59.7451 20.3284C58.8651 20.275 58.2251 19.7817 57.0918 18.2884C56.3985 17.3684 55.4518 16.3951 54.8518 15.9684C53.6385 15.1151 52.1985 14.7284 49.8652 14.6484L48.8385 14.6084V15.3684L48.8252 15.3951Z" fill="#D7D8D9"/>
<path d="M17.6255 15.5952C17.6255 15.9018 17.6388 16.1551 17.6655 16.1551C17.7988 16.1551 19.7588 16.5418 20.1321 16.6485C20.7455 16.8085 21.4654 17.1685 21.8254 17.4885C22.1054 17.7285 22.5454 18.3285 22.4921 18.3818C22.4921 18.3818 22.2654 18.2884 22.0254 18.1418C21.0388 17.5418 20.2654 17.2618 19.1988 17.0751C18.7188 16.9951 18.2255 16.9685 16.7055 16.9685C14.9455 16.9685 14.7588 16.9685 14.1455 17.1018C12.3988 17.4751 10.8255 18.2218 9.90552 19.1285C9.31886 19.7018 9.15888 20.1284 9.42554 20.3684C9.83887 20.7551 11.9588 21.3418 14.2522 21.7018C16.5055 22.0484 17.9321 22.0884 19.6921 21.8351C21.0654 21.6351 22.1588 21.5018 22.3854 21.5018C22.5188 21.5018 22.5454 21.5285 22.5454 21.6751C22.5454 21.8351 22.5454 21.8351 22.1454 21.8885C21.9187 21.9151 21.0788 22.0618 20.2521 22.2218C19.4388 22.3818 18.6121 22.5285 18.4388 22.5551C18.2654 22.5818 17.9988 22.6084 17.8655 22.6218L17.6121 22.6484V24.1284H18.0521C18.9588 24.1284 20.5455 23.8751 21.6388 23.5551C23.6654 22.9684 24.9187 22.1551 25.9587 20.7551C26.0121 20.6751 25.7721 19.7684 25.5321 19.1418C24.9854 17.7151 23.7988 16.7685 21.5188 15.9552C20.1188 15.4485 18.4655 15.0352 17.8522 15.0352H17.6255V15.5952Z" fill="#D7D8D9"/>
<path d="M46.7719 15.075C45.7185 15.1683 44.5719 15.4083 43.6252 15.7417C40.9853 16.675 39.2653 18.6616 39.5453 20.4616C39.8786 22.5816 42.5452 23.9683 46.6119 24.1149L47.6386 24.1549V23.4083C47.6386 22.8349 47.6252 22.6483 47.5586 22.6483C47.2786 22.6483 46.2919 22.4883 45.1452 22.2616C44.0519 22.0483 42.9986 21.8749 42.7586 21.8749C42.7319 21.8749 42.7053 21.7949 42.7053 21.7016C42.7053 21.5416 42.7186 21.5283 42.9186 21.5283C43.0386 21.5283 43.8919 21.6349 44.8119 21.7683C47.5185 22.1549 47.6119 22.1549 49.3585 22.1549C50.7718 22.1549 51.0918 22.1416 51.7318 22.0216C52.6252 21.8616 53.4385 21.6483 54.0385 21.4083C54.5318 21.2216 55.6652 20.6483 55.8785 20.4749L56.0118 20.3683L55.7052 19.9016C54.9318 18.7416 53.7185 17.8617 52.1719 17.3817C51.1985 17.0883 50.5185 16.995 48.9052 16.955C45.9052 16.8883 44.5852 17.2217 42.8119 18.5016L42.3586 18.835L42.1719 18.7283C41.8119 18.515 41.9586 18.3417 42.9186 17.8483C44.1452 17.235 45.5319 16.7016 46.5852 16.435C46.9186 16.355 47.2919 16.2617 47.4119 16.2217L47.6252 16.1683V15.0483H47.3185C47.1452 15.0617 46.8919 15.075 46.7719 15.0883V15.075Z" fill="#D7D8D9"/>
<path d="M28.7454 17.5817C28.572 17.715 28.3987 17.8617 28.3587 17.9284C28.3187 17.9817 28.292 18.6884 28.292 19.5417C28.2787 22.5683 27.7987 24.8216 26.6254 27.4083C26.012 28.7816 24.8787 30.5949 23.8521 31.9016C22.0654 34.1682 21.6654 34.8882 21.4921 36.1415C21.4121 36.7149 21.4654 37.4615 21.6254 37.9015C21.7187 38.1415 21.8388 38.3282 22.1321 38.6082C22.3454 38.8082 22.5321 38.9682 22.5454 38.9549C22.5454 38.9549 22.4921 38.6216 22.3987 38.2216C22.2787 37.6749 22.2387 37.3682 22.2387 36.8349C22.2387 36.1682 22.2387 36.1416 22.4387 35.7949C22.6787 35.3549 22.9987 34.9816 24.6254 33.3016C25.9054 31.9683 26.2121 31.7282 26.8521 31.4883L27.172 31.3683L27.132 32.1283C27.1054 32.5416 27.0387 33.4616 26.9721 34.1682C26.6921 37.3016 26.9054 38.6749 27.8387 39.7015C28.6254 40.5549 29.652 40.9549 31.6787 41.2215C32.212 41.2882 34.132 41.2615 34.6387 41.1682C36.7053 40.8215 37.9186 39.6615 38.3719 37.6215C38.5319 36.8749 38.5186 34.7283 38.3453 33.1816C38.2786 32.5416 38.212 31.8749 38.212 31.7016V31.3683L38.5986 31.5816C39.2653 31.9416 39.9186 32.4749 40.9186 33.4749C41.9586 34.5149 42.5453 35.2482 42.8919 35.9415C43.1053 36.3549 43.1186 36.4216 43.1186 36.9282C43.1186 37.3149 43.0786 37.5682 42.9852 37.8482C42.8519 38.2349 42.7186 38.9815 42.7852 38.9815C42.8386 38.9815 43.4652 38.3282 43.6119 38.1015C43.9586 37.5949 44.0652 36.7816 43.8786 36.0082C43.7586 35.4749 43.1853 34.3282 42.6786 33.5416C42.4386 33.1816 41.8519 32.3416 41.3453 31.6749C39.7853 29.555 39.3053 28.7683 38.7586 27.515C38.3186 26.475 37.9053 25.2083 37.6519 24.0883C37.1719 22.0217 37.0519 21.0083 37.1053 19.4483C37.1453 18.1284 37.1053 18.0084 36.6253 17.5817L36.332 17.3284L36.292 18.2084C36.2653 18.7017 36.1853 19.795 36.1186 20.635C35.9986 21.955 35.9853 22.555 35.9853 24.7016C35.9853 26.115 36.0253 27.6616 36.0653 28.2083C36.1053 28.755 36.212 30.0349 36.2786 31.0616C36.5586 34.5149 36.6119 35.4216 36.6519 37.0082L36.6919 38.5949L36.4386 38.7549C36.0519 38.9949 35.4653 39.2482 34.8386 39.4348C33.9187 39.7148 33.4653 39.7682 32.3453 39.7682C31.4253 39.7682 31.2387 39.7415 30.7187 39.6082C29.6787 39.3282 28.972 38.8349 28.6254 38.1149C28.3454 37.5282 28.3454 37.0349 28.6787 35.3282L28.9587 33.9149L29.1987 29.7949C29.5187 24.1683 29.532 23.7417 29.3854 22.3817C29.1987 20.6884 29.1853 20.5017 29.1453 18.8617L29.1053 17.3284L28.772 17.5684L28.7454 17.5817Z" fill="#D7D8D9"/>
<path d="M19.4255 34.3816C19.3189 34.4216 18.8255 34.7149 18.3322 35.0215C15.7055 36.6482 13.1189 37.5415 9.45225 38.1015C8.75893 38.2082 7.53229 38.1948 6.97229 38.0748C5.50564 37.7548 4.43894 37.1682 2.81229 35.7815C2.42563 35.4482 2.09231 35.1815 2.07898 35.1949C2.03898 35.2482 2.22565 36.3149 2.37231 36.9149C3.2923 40.5148 6.07894 46.1014 9.61225 51.3947C11.3856 54.0614 12.6789 55.7414 14.4389 57.6747C14.8655 58.128 15.5322 58.9013 15.9455 59.3947C16.7855 60.3947 17.4122 61.0347 17.9589 61.4613C18.1589 61.6213 18.3455 61.7413 18.3588 61.7413C18.4122 61.7413 18.3055 61.4213 18.1322 61.088C18.0389 60.9147 17.7055 60.408 17.3988 59.9947C16.4922 58.7814 13.8789 54.8081 12.9456 53.2214C12.4922 52.4481 11.6256 50.8881 11.6256 50.8348C11.6256 50.8081 11.6789 50.8081 11.7589 50.8348C12.0522 50.9014 12.7322 51.3281 13.5989 52.0081C15.3989 53.4081 16.1589 53.8347 17.5055 54.2347C18.1055 54.408 19.0389 54.5547 19.5855 54.5547C19.9455 54.5547 19.9588 54.5547 19.9588 54.3947C19.9588 54.2347 19.9588 54.2347 19.4122 54.1547C18.3322 54.0214 17.2255 53.608 16.0255 52.9014C13.2255 51.2214 10.1856 47.9947 8.43891 44.8081C8.22558 44.4214 6.02561 39.3815 5.94561 39.0882C5.91894 38.9948 5.9456 38.9949 6.1456 39.0482C6.79893 39.2215 7.10561 39.4748 7.45227 40.0882C7.57227 40.3148 8.09229 41.1282 8.59895 41.8882C9.10561 42.6482 9.8656 43.8081 10.2656 44.4481C12.4256 47.8614 13.2256 48.8348 14.3856 49.4081C15.4922 49.9681 16.2122 50.0481 19.7455 50.0481C21.1855 50.0481 23.0122 50.0348 23.7988 50.0081L25.2388 49.9681V50.4081H24.1188V50.7814L24.1588 51.1547L24.5055 51.2214C25.5455 51.4481 27.4254 51.6614 29.2788 51.7814C31.5187 51.9147 35.6254 51.8614 37.812 51.6481C38.6253 51.5814 40.4387 51.3148 40.8653 51.2214L41.1854 51.1547L41.212 50.7814V50.4081H40.6653H40.1053V49.9814L41.5853 50.0214C44.2787 50.1014 48.2919 50.0881 48.9053 50.0081C51.3319 49.6748 52.2386 48.9414 54.5719 45.3815C55.7186 43.6348 57.7586 40.4215 57.9719 40.0215C58.2519 39.5015 58.6119 39.2482 59.3452 39.0348C59.4519 39.0082 59.4252 39.1015 59.0652 39.9948C58.4119 41.6215 56.7052 45.1948 56.0252 46.3415C55.0519 47.9814 54.0253 49.2081 52.7586 50.2081C52.5186 50.4081 52.0519 50.7681 51.7453 51.0347C51.1453 51.5414 50.2519 52.1414 49.2519 52.7147C47.692 53.6081 46.6786 54.0214 45.612 54.1947C45.412 54.2347 45.3853 54.248 45.3986 54.3947C45.412 54.5414 45.452 54.5547 45.6653 54.568C46.0386 54.5947 47.212 54.4214 47.7986 54.2481C49.2386 53.8347 50.1586 53.2747 52.2386 51.5948C53.2252 50.7948 53.7719 50.3947 53.7719 50.4481C53.7719 50.4614 53.7052 50.6481 53.6252 50.8481C53.0119 52.4881 50.0386 57.2614 48.092 59.7547C47.7986 60.128 47.4786 60.568 47.3853 60.7147C47.1853 61.048 46.9053 61.768 46.972 61.768C47.132 61.768 49.372 59.3813 50.9319 57.5814C51.6653 56.7147 54.6653 52.8614 55.6386 51.4881C57.0652 49.5014 58.9585 46.3415 60.1985 43.8748C61.2118 41.8615 61.6919 40.6215 62.2652 38.5682C62.6785 37.0348 62.8385 36.5415 63.0918 35.9815C63.1985 35.7682 63.2652 35.5815 63.2518 35.5682C63.2518 35.5682 62.9319 35.7549 62.5585 35.9949C60.9452 37.0349 59.4119 37.6615 57.6519 37.9548C56.7985 38.1015 54.9052 38.1015 54.0252 37.9548C51.9319 37.6082 50.0519 36.9015 47.8386 35.5949C46.6786 34.9149 46.1453 34.6616 45.6253 34.5549C45.1453 34.4482 44.8787 34.5015 44.7187 34.6882C44.5587 34.8882 44.572 35.0349 44.7453 35.3949C45.0653 36.0215 45.9853 36.7682 47.1853 37.3548C48.7853 38.1415 52.1586 39.0615 54.2119 39.2882C54.5719 39.3282 54.8786 39.3682 54.8786 39.3815C54.8786 39.4882 53.3453 41.4748 52.4653 42.5281C51.3986 43.7948 50.5986 44.7948 49.8386 45.8481L49.5853 46.1948L47.9053 46.1548C43.9586 46.0614 41.6653 45.7148 40.6253 45.0614C39.852 44.5814 38.412 42.9148 37.732 41.7548C37.572 41.4748 37.4254 41.2482 37.3987 41.2482C37.372 41.2482 36.4387 41.4748 35.3187 41.7681C32.7454 42.4081 32.5321 42.4348 31.3454 42.1148C29.1854 41.5415 27.9321 41.2482 27.8921 41.2882C27.8788 41.3148 27.5588 41.7415 27.2121 42.2348C24.7988 45.6348 23.4388 46.1815 17.3988 46.1815H15.7322L15.3056 45.6081C14.8656 45.0081 14.2122 44.2348 13.4522 43.3948C13.0256 42.9281 10.4389 39.4348 10.4789 39.3948C10.4789 39.3948 10.7856 39.3415 11.1323 39.3015C12.3856 39.1549 14.3722 38.7015 15.8922 38.2082C17.9722 37.5282 19.4922 36.7815 20.1322 36.0882C20.5722 35.6082 20.6255 35.3149 20.3988 34.8482C20.1455 34.3549 19.8388 34.1949 19.4122 34.3816H19.4255ZM33.1187 44.8748C33.5054 45.0481 34.1321 45.7014 34.6787 46.4748C34.9187 46.8214 35.3987 47.4748 35.7587 47.9281C36.4387 48.8348 36.8654 49.4481 37.1987 50.0214L37.412 50.3947H27.9188L28.0254 50.1414C28.5588 48.9147 31.0654 45.6614 32.0387 44.9414C32.4387 44.6481 32.6121 44.6348 33.1187 44.8748Z" fill="#D7D8D9"/>
<path d="M24.4921 39.0883C24.4921 39.0883 24.5454 39.3682 24.5854 39.5816C24.7054 40.2216 24.9721 40.6082 25.4387 40.7949C25.6387 40.8749 27.2787 41.2349 27.4654 41.2349C27.5721 41.2349 27.3987 40.4349 27.2254 40.0616C27.0521 39.7149 26.7454 39.4216 26.3987 39.2616C26.1054 39.1283 25.2254 38.9683 24.7987 38.9683C24.5321 38.9683 24.4787 38.9816 24.5054 39.0749L24.4921 39.0883Z" fill="#D7D8D9"/>
<path d="M39.1721 39.1415C39.0121 39.1948 38.6388 39.4082 38.3454 39.5949L37.8121 39.9548V40.5948C37.7854 40.9815 37.8121 41.2348 37.8388 41.2348C37.8654 41.2348 38.3054 41.1548 38.7988 41.0615C39.7454 40.8748 40.0387 40.7682 40.2921 40.4882C40.4787 40.2882 40.7587 39.7148 40.772 39.4748C40.7987 39.1015 39.8921 38.9148 39.1854 39.1415H39.1721Z" fill="#D7D8D9"/>
<path d="M28.7454 56.5681C28.7454 56.7414 29.132 57.4747 29.532 58.0614C30.1987 59.0347 30.1987 59.0347 30.1854 60.0214C30.1854 61.168 30.092 61.7147 29.8253 62.7814C29.7054 63.2747 29.5587 63.9014 29.5187 64.1814C29.3054 65.6614 29.7987 70.1813 30.4787 72.9546C30.692 73.8613 31.132 75.128 31.412 75.6746L31.692 76.2213H32.652L33.612 76.2479L33.7853 75.9946C34.1987 75.3946 34.5587 74.5146 34.7587 73.6746C34.892 73.0613 35.452 69.568 35.6387 68.168C35.9053 66.1547 35.892 65.5413 35.532 63.568C35.052 60.9547 34.9453 60.1547 35.0386 59.6214C35.1186 59.1014 35.3186 58.7281 35.812 58.0614C36.2386 57.5147 36.6387 56.7681 36.6387 56.5681C36.6387 56.4614 36.4386 56.4614 32.692 56.4614C28.9453 56.4614 28.7454 56.4614 28.7454 56.5681Z" fill="#D7D8D9"/>
</svg>
