<svg width="44" height="43" viewBox="0 0 44 43" fill="none" xmlns="http://www.w3.org/2000/svg">
<path d="M7.64613 10.8385C6.91285 10.8385 6.3129 11.4384 6.3129 12.1717V13.505H2.31321C1.57993 13.505 0.97998 14.1049 0.97998 14.8382V22.8376C0.97998 23.5708 1.57993 24.1708 2.31321 24.1708H6.3129V25.504C6.3129 26.2373 6.91285 26.8372 7.64613 26.8372H8.4594L13.819 41.1295C14.1523 41.9827 14.8856 42.6094 15.7788 42.7827C15.9521 42.8227 16.1388 42.836 16.3121 42.836C17.0187 42.836 17.6987 42.556 18.192 42.0494L21.3917 38.8763C22.205 38.063 22.405 36.7831 21.885 35.7966L17.4054 26.8506H20.9518C21.4051 26.8772 21.8584 26.9439 22.325 26.9839V10.7185C21.8584 10.7585 21.4051 10.8385 20.9384 10.8518H7.65946L7.64613 10.8385Z" fill="white"/>
<path d="M43.4167 0.825985C43.4167 0.825985 43.3633 0.745992 43.3367 0.705995C43.19 0.519343 43.0034 0.372688 42.7767 0.279361C42.7767 0.279361 42.7767 0.279361 42.7501 0.266029C42.7234 0.266029 42.6967 0.266029 42.6701 0.266029C42.5501 0.226032 42.4301 0.186035 42.2968 0.186035C42.2034 0.186035 42.1234 0.226032 42.0435 0.239364C41.9901 0.239364 41.9501 0.239364 41.8968 0.266029C41.6702 0.346023 41.4702 0.466014 41.3102 0.639333C41.3102 0.639333 41.2835 0.639333 41.2702 0.665998C37.1105 5.71894 31.311 9.09201 24.9648 10.3319V27.3706C31.311 28.6105 37.1105 31.9836 41.2702 37.0232C41.2702 37.0232 41.2968 37.0365 41.3102 37.0632C41.4035 37.1698 41.5235 37.2498 41.6435 37.3165C41.6835 37.3431 41.7102 37.3698 41.7501 37.3965C41.9235 37.4631 42.0968 37.5165 42.2968 37.5165C42.4434 37.5165 42.6034 37.4898 42.7501 37.4365C42.7501 37.4365 42.7501 37.4365 42.7767 37.4231C43.0034 37.3298 43.19 37.1832 43.3367 36.9965C43.3633 36.9565 43.39 36.9165 43.4167 36.8765C43.55 36.6765 43.63 36.4499 43.63 36.1832V1.50593C43.63 1.25262 43.5367 1.02597 43.4167 0.812653V0.825985Z" fill="white"/>
</svg>
