<svg width="43" height="44" viewBox="0 0 43 44" fill="none" xmlns="http://www.w3.org/2000/svg">
<path d="M21.2946 13.2375C23.2679 13.2375 24.4679 14.2908 24.4679 16.0775C24.4679 19.3041 18.6946 20.2108 18.6946 24.1308C18.6946 25.1841 19.3879 26.3441 20.8012 26.3441C22.9746 26.3441 22.7212 24.7307 23.5079 23.5708C24.5612 22.0241 29.4812 20.3708 29.4812 16.0775C29.4812 11.4242 25.3212 9.47754 21.0946 9.47754C16.8679 9.47754 13.3746 12.3442 13.3746 15.5842C13.3746 16.9042 14.3613 17.5975 15.5213 17.5975C18.7213 17.5975 17.0679 13.2375 21.2946 13.2375Z" fill="#25509A"/>
<path d="M23.6412 31.184C23.6412 29.6907 22.4279 28.4773 20.9346 28.4773C19.4412 28.4773 18.2279 29.704 18.2279 31.184C18.2279 32.664 19.4546 33.8906 20.9346 33.8906C22.4145 33.8906 23.6412 32.6773 23.6412 31.184Z" fill="#25509A"/>
<path d="M42.8277 21.6907C42.8277 9.89082 33.2278 0.290894 21.4279 0.290894C9.628 0.290894 0.0280762 9.89082 0.0280762 21.6907C0.0280762 33.4906 9.628 43.0906 21.4279 43.0906C33.2278 43.0906 42.8277 33.4906 42.8277 21.6907ZM2.16139 21.6907C2.16139 11.0641 10.8013 2.42422 21.4279 2.42422C32.0545 2.42422 40.6944 11.0641 40.6944 21.6907C40.6944 32.3173 32.0545 40.9572 21.4279 40.9572C10.8013 40.9572 2.16139 32.3173 2.16139 21.6907Z" fill="#25509A"/>
</svg>
