<svg width="44" height="43" viewBox="0 0 44 43" fill="none" xmlns="http://www.w3.org/2000/svg">
<path d="M7.62669 10.6687C6.89336 10.6687 6.29336 11.2687 6.29336 12.002V13.3354H2.29336C1.56002 13.3354 0.960022 13.9354 0.960022 14.6687V22.6687C0.960022 23.402 1.56002 24.002 2.29336 24.002H6.29336V25.3354C6.29336 26.0687 6.89336 26.6687 7.62669 26.6687H8.44002L13.8 40.962C14.1334 41.8154 14.8667 42.442 15.76 42.6154C15.9334 42.6554 16.12 42.6687 16.2934 42.6687C17 42.6687 17.68 42.3887 18.1734 41.882L21.3734 38.7087C22.1867 37.8954 22.3867 36.6154 21.8667 35.6287L17.3867 26.682H20.9334C21.3867 26.7087 21.84 26.7754 22.3067 26.8154V10.5487C21.84 10.5887 21.3867 10.6687 20.92 10.682H7.64002L7.62669 10.6687Z" fill="#252849"/>
<path d="M43.4001 0.642075C43.4001 0.642075 43.3467 0.562074 43.32 0.522074C43.1734 0.335408 42.9867 0.188741 42.7601 0.0954081C42.7601 0.0954081 42.7601 0.0954078 42.7334 0.0820745C42.7067 0.0820745 42.68 0.0820745 42.6534 0.0820745C42.5334 0.0420745 42.4134 0.0020752 42.2801 0.0020752C42.1867 0.0020752 42.1067 0.0420764 42.0267 0.0554098C41.9734 0.0554098 41.9334 0.0554078 41.8801 0.0820745C41.6534 0.162074 41.4534 0.282075 41.2934 0.455409C41.2934 0.455409 41.2667 0.455409 41.2534 0.482076C37.0934 5.53541 31.2934 8.90874 24.9467 10.1487V27.1887C31.2934 28.4287 37.0934 31.8021 41.2534 36.8421C41.2534 36.8421 41.2801 36.8554 41.2934 36.8821C41.3867 36.9887 41.5067 37.0687 41.6267 37.1354C41.6667 37.1621 41.6934 37.1887 41.7334 37.2154C41.9067 37.2821 42.08 37.3354 42.2801 37.3354C42.4267 37.3354 42.5867 37.3087 42.7334 37.2554C42.7334 37.2554 42.7334 37.2554 42.7601 37.2421C42.9867 37.1487 43.1734 37.0021 43.32 36.8154C43.3467 36.7754 43.3734 36.7354 43.4001 36.6954C43.5334 36.4954 43.6134 36.2687 43.6134 36.0021V1.33541C43.6134 1.08208 43.5201 0.855408 43.4001 0.642075Z" fill="#252849"/>
</svg>
