<svg width="18" height="33" viewBox="0 0 18 33" fill="none" xmlns="http://www.w3.org/2000/svg">
<path d="M16.1076 22.0609H8.93427V22.3142C8.93427 23.7009 9.28093 24.8742 9.98759 25.8609C10.6943 26.8476 11.6809 27.3409 12.9609 27.3409C13.6409 27.3409 14.3209 27.2875 15.0009 27.1675C15.6809 27.0475 16.3342 26.8742 16.9609 26.6342L17.3875 31.5275C16.6809 31.7409 15.9476 31.9009 15.2142 32.0208C14.4809 32.1408 13.7209 32.1942 12.9742 32.1942C9.96094 32.1942 7.52095 31.2342 5.6543 29.3275C3.80098 27.4075 2.86766 25.0742 2.86766 22.3276V22.0742H0.281006V17.8076H2.86766V15.3143H0.281006V11.0476H2.86766V10.701C2.86766 7.79438 3.78765 5.31439 5.64097 3.27441C7.49429 1.23443 9.92093 0.207703 12.9476 0.207703C13.6676 0.207703 14.3876 0.261042 15.0942 0.381041C15.8009 0.50104 16.5609 0.661032 17.3875 0.874364L16.9609 5.80767C16.3209 5.58101 15.6542 5.39438 14.9876 5.26105C14.3076 5.12772 13.6276 5.06102 12.9476 5.06102C11.6809 5.06102 10.6943 5.62103 9.98759 6.74102C9.28093 7.86101 8.93427 9.16767 8.93427 10.661V11.0476H16.1076V15.3143H8.93427V17.8076H16.1076V22.0742V22.0609Z" fill="#252849"/>
</svg>
