<svg width="47" height="33" viewBox="0 0 47 33" fill="none" xmlns="http://www.w3.org/2000/svg">
<path d="M46.3608 4.06216C46.3608 1.86218 44.5741 0.0621948 42.3608 0.0621948H4.85446C2.64114 0.0621948 0.854492 1.86218 0.854492 4.06216V28.062C0.854492 30.2753 2.65448 32.0619 4.85446 32.0619H42.3608C44.5475 32.0619 46.3608 30.2753 46.3608 28.062V4.06216ZM3.52114 4.60883L15.041 16.0754L3.52114 27.5287V4.62218V4.60883ZM26.441 18.0221C25.681 18.7821 24.681 19.1954 23.6143 19.1954C22.5477 19.1954 21.5477 18.7821 20.7877 18.0221C20.4677 17.7021 6.54778 3.86218 5.42779 2.74219H41.8142C41.0008 3.55551 26.9343 17.5421 26.441 18.0221ZM16.9344 17.9554L18.8944 19.902C20.1477 21.1554 21.8277 21.8487 23.6143 21.8487C25.401 21.8487 27.0676 21.1554 28.3209 19.902L30.2809 17.9554L41.8008 29.3953H5.41445L16.9344 17.9554ZM32.1742 16.0754L43.6942 4.60883V27.5153L32.1742 16.0621V16.0754Z" fill="#252849"/>
</svg>
