<svg width="33" height="33" viewBox="0 0 33 33" fill="none" xmlns="http://www.w3.org/2000/svg">
<path d="M31.8675 0.634825C31.7608 0.52816 31.6275 0.474792 31.4808 0.474792H25.8142C25.6675 0.474792 25.5342 0.541493 25.4275 0.634825C25.3208 0.741491 25.2675 0.874794 25.2675 1.02146V2.36813C25.2675 2.51479 25.3342 2.64814 25.4275 2.7548C25.5342 2.86147 25.6675 2.9148 25.8142 2.9148H27.8675L25.5875 5.19477C22.0142 2.47479 16.9476 2.80813 13.7609 5.99477C13.1743 6.58143 12.6943 7.22143 12.2943 7.91476C11.4143 7.63476 10.4943 7.48808 9.5743 7.48808C4.60101 7.48808 0.561035 11.5281 0.561035 16.5014C0.561035 21.0213 3.89434 24.8346 8.36097 25.4346V27.9279H6.92099C6.61433 27.9279 6.37432 28.1679 6.37432 28.4746V29.8212C6.37432 30.1279 6.61433 30.368 6.92099 30.368H8.36097V31.9146C8.36097 32.2212 8.60098 32.4612 8.90764 32.4612H10.2543C10.561 32.4612 10.801 32.2212 10.801 31.9146V30.368H12.2409C12.5476 30.368 12.7876 30.1279 12.7876 29.8212V28.4746C12.7876 28.1679 12.5476 27.9279 12.2409 27.9279H10.801V25.4346C13.5876 25.0613 16.0276 23.4079 17.4142 20.9546C18.3209 21.2479 19.2409 21.3813 20.1609 21.3813C22.5075 21.3813 24.7875 20.4613 26.5208 18.7413C29.7075 15.5547 30.0541 10.4881 27.3208 6.91476L29.6008 4.63479V6.67478C29.6008 6.82144 29.6408 6.95474 29.7475 7.06141C29.8541 7.16808 29.9875 7.22144 30.1341 7.22144H31.4808C31.6275 7.22144 31.7608 7.16808 31.8675 7.06141C31.9741 6.95474 32.0275 6.82144 32.0275 6.67478V1.00815C32.0275 0.861489 31.9741 0.728145 31.8675 0.621479V0.634825ZM9.22763 22.9813C5.94766 22.808 3.25435 20.1013 3.09435 16.8213C3.01435 15.0347 3.64102 13.328 4.88101 12.0347C6.121 10.7414 7.77431 10.0347 9.5743 10.0347C10.1876 10.0347 10.7876 10.1147 11.3743 10.2881C10.681 13.2347 11.4676 16.4614 13.7609 18.7547C14.1743 19.168 14.6276 19.5414 15.1209 19.8614C13.8809 21.9147 11.6409 23.1013 9.22763 22.9813ZM16.0009 17.3547C15.8409 17.2213 15.6943 17.088 15.5609 16.9547C14.2943 15.688 13.6276 14.0081 13.6676 12.2214C13.6676 11.9814 13.6943 11.7547 13.7209 11.5147C15.2143 12.7547 16.0676 14.5547 16.0676 16.5014C16.0676 16.7814 16.0543 17.0613 16.0143 17.3547H16.0009ZM24.7208 16.9547C23.0409 18.6347 20.6142 19.248 18.3476 18.5947C18.5076 17.9014 18.6009 17.208 18.6009 16.5014C18.6009 13.4747 17.1076 10.6881 14.6009 9.00809C14.9209 8.4881 15.3209 7.99474 15.7876 7.56808C18.2276 5.34143 22.0675 5.34143 24.5075 7.56808C25.8275 8.7814 26.5875 10.4214 26.6275 12.2081C26.6675 13.9947 26.0008 15.6747 24.7342 16.9413L24.7208 16.9547Z" fill="#252849"/>
</svg>
