<svg width="33" height="33" viewBox="0 0 33 33" fill="none" xmlns="http://www.w3.org/2000/svg">
<path d="M16.4144 0.593689C7.58783 0.593689 0.414551 7.76697 0.414551 16.5936C0.414551 25.4202 7.58783 32.5934 16.4144 32.5934C25.241 32.5934 32.4143 25.4202 32.4143 16.5936C32.4143 7.76697 25.241 0.593689 16.4144 0.593689ZM19.2011 25.0202C19.2011 26.5535 17.9477 27.8068 16.4144 27.8068C14.8811 27.8068 13.6278 26.5535 13.6278 25.0202V16.2868C13.6278 14.7535 14.8811 13.5002 16.4144 13.5002C17.9477 13.5002 19.2011 14.7535 19.2011 16.2868V25.0202ZM16.4144 11.9269C14.6144 11.9269 13.1478 10.4603 13.1478 8.66028C13.1478 6.86029 14.6144 5.38027 16.4144 5.38027C18.2144 5.38027 19.6811 6.84696 19.6811 8.66028C19.6811 10.4736 18.2144 11.9269 16.4144 11.9269Z" fill="#252849"/>
</svg>
