<svg width="24" height="33" viewBox="0 0 24 33" fill="none" xmlns="http://www.w3.org/2000/svg">
<path d="M11.9743 8.99398C12.1476 9.08731 12.2543 9.26061 12.2543 9.46061V16.2206H15.5742V9.46061C15.5742 9.27394 15.6809 9.08732 15.8542 9.00732C16.2942 8.78066 16.6942 8.48731 17.0542 8.15398C17.8809 7.31398 18.3342 6.19401 18.3209 5.00735C18.3209 3.83403 17.8675 2.70072 17.0409 1.86073C16.6409 1.46073 16.1476 1.15403 15.5076 0.900696V3.59403C15.5076 4.47403 14.8009 5.18069 13.9209 5.18069C13.0409 5.18069 12.3343 4.47403 12.3343 3.59403V0.900696C12.3343 0.900696 12.3209 0.900696 12.3076 0.900696C11.7343 1.10069 11.2276 1.43407 10.7876 1.86073C9.96093 2.70072 9.49427 3.83403 9.5076 5.00735C9.5076 6.18068 9.96093 7.31398 10.7876 8.15398C11.1343 8.50064 11.5343 8.78064 11.9743 8.99398Z" fill="#252849"/>
<path d="M2.09444 16.6472H3.82777C4.53443 16.6472 5.10775 17.2206 5.10775 17.9272V31.6204C5.10775 32.3271 4.53443 32.9004 3.82777 32.9004H2.09444C1.38778 32.9004 0.814453 32.3271 0.814453 31.6204V17.9272C0.814453 17.2206 1.38778 16.6472 2.09444 16.6472Z" fill="#252849"/>
<path d="M11.8144 32.8871H19.3877C20.241 32.8871 20.9343 32.1938 20.9343 31.3405C20.9343 30.4872 20.241 29.7938 19.3877 29.7938H17.481C17.201 29.7938 16.961 29.5672 16.961 29.2739C16.961 28.9805 17.1877 28.7538 17.481 28.7538H20.1743C21.0543 28.7538 21.761 28.0472 21.761 27.1672C21.761 26.2872 21.0543 25.5805 20.1743 25.5805H18.081C17.801 25.5805 17.561 25.3538 17.561 25.0605C17.561 24.7672 17.7877 24.5405 18.081 24.5405H20.7077C21.5877 24.5405 22.2943 23.8338 22.2943 22.9538C22.2943 22.0738 21.5877 21.3673 20.7077 21.3673H18.681C18.441 21.3673 18.2277 21.1938 18.1744 20.9538C18.1744 20.9138 18.1744 20.8872 18.1744 20.8472C18.1744 20.6072 18.3477 20.3939 18.5877 20.3406C18.6277 20.3406 18.6544 20.3406 18.6944 20.3406H21.561C22.4143 20.3406 23.1077 19.6472 23.1077 18.7939C23.1077 17.9405 22.4143 17.2473 21.561 17.2473H11.8411C10.0944 17.2473 8.38777 17.6473 6.84112 18.4473L6.16113 18.7806V31.3004L6.84112 31.6738C8.38777 32.4738 10.1078 32.9005 11.8411 32.9005L11.8144 32.8871Z" fill="#252849"/>
</svg>
